<?xml version="1.0" encoding="utf-8"?>
<!-- Generator: Adobe Illustrator 27.5.0, SVG Export Plug-In . SVG Version: 6.00 Build 0)  -->
<svg version="1.1" xmlns="http://www.w3.org/2000/svg" xmlns:xlink="http://www.w3.org/1999/xlink" x="0px" y="0px"
	 viewBox="0 0 750 500" style="enable-background:new 0 0 750 500;" xml:space="preserve">
<g id="Background">
	<rect style="fill:#B3FDFF;" width="750" height="500"/>
</g>
<g id="Objects">
	<g>
		<g>
			<g>
				<defs>
					<rect id="SVGID_1_" x="0.169" width="749.831" height="500"/>
				</defs>
				<clipPath id="SVGID_00000181800062158863409720000015307377331839956872_">
					<use xlink:href="#SVGID_1_"  style="overflow:visible;"/>
				</clipPath>
				<g style="clip-path:url(#SVGID_00000181800062158863409720000015307377331839956872_);">
					<polygon style="fill:#9EF2F2;" points="159.074,242.802 161.607,242.802 161.607,231.755 172.84,231.755 172.84,215.323 
						172.84,215.323 161.607,215.323 161.607,213.534 159.074,213.534 159.074,215.323 147.841,215.323 147.841,215.323 
						147.841,231.755 159.074,231.755 					"/>
					<path style="fill:#9EF2F2;" d="M807.462,9.39c-0.522-0.063-0.996,0.319-1.055,0.846c-3.063,28.031-7.397,52.461-13.228,74.203
						h-9.065v-9.553h-2.532l0,0v9.553h-8.294c8.578-22.811,14.899-46.994,18.876-72.486c0.08-0.52-0.276-1.01-0.797-1.092
						c-0.519-0.082-1.01,0.273-1.092,0.797c-3.994,25.61-10.368,49.893-19.034,72.781h-0.892l0,0h-0.001v2.348
						c-5.684,14.682-12.326,28.779-19.9,42.276h-0.411l0,0l0,0v0.724c-1.768,3.133-3.587,6.234-5.458,9.302h-5.775l0,0v9.131
						c-18.456,28.104-41.304,53.3-68.367,75.359v-9.14h-11.234v-6.126l0,0h-2.533l0,0v6.126h-11.232v27.799
						c-5.878,4.021-11.922,7.913-18.128,11.678h-0.367l0,0l0,0v0.225c-6.038,3.654-12.231,7.186-18.576,10.597v-26.502h-11.234
						v-29.059l0,0h-2.532l0,0l0,0v29.059h-11.231v30.467h11.231v3.121c-6.33,3.119-12.793,6.131-19.403,9.019v-4.457h-9.609V255.61
						h-2.532l0,0l0,0v20.774h-12.857l0,0v14.501c-4.713,1.671-9.363,3.144-13.946,4.442v-6.051h-2.533v6.753
						c-6.057,1.64-11.989,2.973-17.778,4.033v-20.169h-11.232v-4.442h-2.533v4.442h-11.233l0,0v23.25
						c-2.298,0.146-4.561,0.248-6.793,0.317v-15.01h-11.232v-13.669l0,0h-2.533l0,0v13.669h-11.233l0,0l0,0v3.897
						c-3.027-1.658-6.053-3.44-9.078-5.318v-40.083l0,0h-11.234v-33.414h-2.533v33.414H425.07v22.077
						c-1.549-1.268-3.099-2.568-4.649-3.894v-1.285l0,0h-1.504c-3.237-2.805-6.48-5.742-9.73-8.797v-4.473l0,0h-2.533l0,0v2.072
						c-3.505-3.361-7.018-6.859-10.544-10.512c-17.037-17.652-32.194-29.473-46.458-36.684v-35.174l0,0h-2.533l0,0l0,0v33.936
						c-6.054-2.85-11.955-4.871-17.78-6.152v-4.424h-11.233V179.66v-0.001h-2.533v0.001v13.978h-11.232v3.205
						c-6.102,0.692-12.244,2.059-18.515,3.988v-0.457l0,0h-2.532l0,0v0.887c-1.027-0.036-2.061-0.051-3.101-0.036
						c-7.202,0.103-14.437,1.411-21.563,3.833v-2.982h0h-2.533l0,0v3.892c-2.971,1.125-5.92,2.439-8.837,3.949h-2.395l0,0v1.292
						c-2.476,1.379-4.925,2.893-7.343,4.543v-47.586l0,0h-11.233v-18.022h-2.533l0,0l0,0v18.022h-11.232l0,0v68.163
						c-2.154,1.172-4.336,2.355-6.547,3.547v-37.397l0,0h-11.233v-14.603h-2.533l0,0v14.603h-11.233l0,0l0,0v49.105
						c-14.323,4.303-29.092,3.698-44.115-1.818c-1.121-0.854-2.179-1.695-3.192-2.527h7.624l0,0l0,0v-15.484l0,0h-11.231v-36.809
						h-2.534v36.809h-11.233v1.694c-3.824-2.315-8.326-4.381-14.227-6.14v-3.696h11.233l0,0v-25.688v-0.001H102.07v-7.232h-2.532
						v7.232H88.305v0.001v17.581c-2.731-2.851-5.409-5.799-8.028-8.835v-96.078h-9.752V99.765h-2.533v10.827H55.279v62.318
						c-1.513-2.351-2.991-4.71-4.435-7.071v-1.612h-0.984c-19.276-31.87-32.157-63.792-35.795-79.997
						C2.756,33.853-56.788,46.037-57.389,46.16c-0.516,0.112-0.845,0.62-0.733,1.135c0.111,0.519,0.619,0.838,1.135,0.735
						c0.581-0.127,58.292-11.91,69.187,36.619c3.29,14.655,12.675,39.071,27.134,65.495h-2.256l0,0v14.083h-6.783
						c-1.741-5.707-3.666-11.737-5.93-17.915v-11.836h-4.806c-9.4-19.955-23.165-29.749-34.418-34.549V64.644l0,0h-2.532l0,0v34.268
						c-9.505-3.57-16.668-3.602-16.834-3.585c-0.528,0.005-0.952,0.437-0.947,0.965c0.004,0.524,0.431,0.946,0.956,0.946
						c0.003-0.002,0.007,0,0.018,0c0.334,0,7.465,0.079,16.808,3.712v8.132h-11.234v50.788h11.234v6.879l0,0h2.532l0,0v-6.879
						h11.232v-50.788H-14.86v-7.079c8.381,3.709,18.11,10.301,26.236,22.026h-0.777l0,0v10.446H-0.634v15.668h11.233v29.517l0,0
						h2.534l0,0v-29.517h10.575c1.696,4.831,3.206,9.558,4.591,14.083h-2.453l0,0v30.866l0,0h11.233v14.083l0,0h2.533l0,0v-11.394
						c3.806,8.281,8.594,15.129,15.668,19.877v1.201l0,0h1.913c3.144,1.837,6.713,3.292,10.8,4.317v35.731l0,0h2.533l0,0v-35.164
						c1.754,0.347,3.596,0.622,5.536,0.819c9.487,0.964,16.896,2.273,22.911,3.871c0.189,0.166,0.376,0.335,0.565,0.499v7.443h2.532
						v-5.298c4.573,3.802,9.321,7.318,14.227,10.451v5.711l0,0h9.981c0.415,0.209,0.835,0.402,1.251,0.604v2.732l0,0h2.534l0,0
						v-1.533c1.966,0.889,3.929,1.701,5.888,2.428c17.205,13.009,34.302,15.674,51.674,7.938h4.586v12.498h2.533l0,0v-12.498h11.233
						v-11.947c2.176-1.856,4.358-3.869,6.547-6.044v15.997l0,0h11.232v44.215h2.533l0,0l0,0v-44.215h11.233l0,0v-32.533
						c2.488-1.341,4.938-2.652,7.343-3.921v14.645h11.231v9.543l0,0h2.533h0v-9.543h11.232l0,0v-25.688h-2.66
						c5.525-2.481,10.871-4.642,16.091-6.416v35.204H272.06v17.069l0,0h11.233v3.634l0,0h2.532l0,0v-3.634h11.234l0,0v-17.069
						h-11.234v-35.383c6.653,0.528,12.934,2.168,18.515,4.773v66.688l0,0h11.232v14.786h2.533v-14.786h11.233l0,0v-44.73
						c5.335,5.657,11.337,11.919,17.78,18.282v41.235h-11.233l0,0v21.151h11.233v13.478l0,0h2.533v-13.478h11.233l0,0l0,0v-21.151
						l0,0h-11.233v-38.751c4.568,4.447,9.334,8.904,14.226,13.208v14.313h11.232v11.904h2.534l0,0l0,0V278.34h3.973
						c4.594,3.339,9.214,6.377,13.807,8.996v5.499h11.16c0.024,0.01,0.048,0.018,0.071,0.028v16.745l0,0h2.533l0,0v-15.756
						c4.091,1.504,9.438,3.265,15.884,4.956v30.137v0.001h11.232v14.2l0,0h2.533l0,0v-14.2h11.234v-0.001l0,0v-25.258
						c2.921,0.384,5.952,0.715,9.078,0.987v0.847l0,0h11.233v14.944l0,0h2.533l0,0v-14.944h10.94
						c2.358,0.813,4.719,1.575,7.085,2.259v1.828l0,0h7.025c1.401,0.329,2.804,0.634,4.208,0.917v20.557l0,0h2.533l0,0v-20.071
						c5.891,1.071,11.813,1.746,17.777,2.029v3.07l0,0h11.233v2.434h2.533v-2.434h11.232l0,0v-4.148
						c5.149-0.679,10.337-1.635,15.571-2.874v30.552l0,0h2.532l0,0v-31.175c9.506-2.405,19.165-5.727,29.013-9.959v62.155h2.532l0,0
						v-63.259c6.116-2.718,12.306-5.783,18.577-9.197v5.248h11.233v3.533l0,0h2.532l0,0v-3.533h11.232l0,0v-17.069l0,0h-5.102
						c3.254-2.089,6.531-4.262,9.833-6.528v33.829h11.232v5.818l0,0h2.533l0,0v-5.818h11.234v-51.518
						c5.34-3.91,10.527-7.81,15.564-11.722v19.326l0,0h2.533l0,0v-21.3c0.75-0.589,1.49-1.18,2.233-1.77h10.266l0,0v-8.37
						c1.853-1.554,3.685-3.113,5.492-4.678v3.631l0,0h11.232v15.767h2.534v-15.767h11.232v-25.689h-1.657
						c3.068-3.188,6.047-6.424,8.938-9.715v28.353h11.233v18.741l0,0h2.532v-18.741h11.232v-61.878
						c4.848-7.799,9.287-15.925,13.333-24.465h4.447v94.917h2.532l0,0v-94.917h11.232l0,0v-49.45l0,0h-0.293
						c5.888-21.862,10.224-46.256,13.255-73.994C808.365,9.92,807.986,9.448,807.462,9.39z M13.132,126.691
						c1.51,2.395,2.952,4.984,4.308,7.784h-4.308V126.691z M750.036,133.686v5.403h-3.2
						C747.918,137.298,748.988,135.499,750.036,133.686z M600.804,268.702c-1.22,0.625-2.442,1.248-3.673,1.864v-1.864H600.804z
						 M415.999,263.846h-6.813v-6.178C411.46,259.783,413.731,261.852,415.999,263.846z M256.096,208.01v1.907h-4.48
						C253.103,209.232,254.597,208.594,256.096,208.01z M99.538,226.345c-1.009-0.895-2.011-1.807-3.008-2.732h3.008V226.345z
						 M39.611,150.651c2.461,4.482,5.067,9.019,7.814,13.576h-7.814V150.651z M40.47,195.093h10.374v-25.306
						c0.082,0.131,0.162,0.262,0.244,0.393c1.333,2.12,2.735,4.296,4.191,6.506v38.692C48.588,210.546,44.111,203.611,40.47,195.093
						z M61.302,218.859h6.689v2.346C65.575,220.577,63.354,219.792,61.302,218.859z M76.254,222.663
						c-2.021-0.206-3.92-0.502-5.729-0.871v-2.933h9.752l0,0v-9.174c2.591,2.939,5.268,5.83,8.028,8.648v5.28l0,0h5.368
						c0.748,0.708,1.502,1.407,2.26,2.101C90.507,224.485,84.076,223.458,76.254,222.663z M103.557,229.788
						c5.222,1.723,9.257,3.715,12.739,5.925v3.536C111.959,236.411,107.71,233.235,103.557,229.788z M141.967,253.453
						c13.255,3.804,26.301,3.845,39.011,0.131v5.824l0,0h1.076C163.993,265.481,150.166,258.905,141.967,253.453z M205.977,244.896
						v-2.849c2.213-1.191,4.392-2.372,6.547-3.543v0.192C210.306,240.956,208.123,243.022,205.977,244.896z M237.522,222.712v-4.629
						c2.416-1.698,4.866-3.258,7.343-4.676v5.406C242.453,220.077,240.008,221.376,237.522,222.712z M258.63,209.917v-2.838
						c6.686-2.337,13.468-3.659,20.225-3.901c-5.246,1.914-10.604,4.181-16.121,6.739H258.63z M288.951,201.724
						c5.215-1.509,10.325-2.597,15.39-3.206v7.458C299.61,203.868,294.418,202.429,288.951,201.724z M329.338,227.264V199.72
						c5.823,1.321,11.719,3.407,17.78,6.361v39.565C340.642,239.202,334.637,232.898,329.338,227.264z M384.894,278.34h3.982
						v-19.276l0,0h-11.233v-24.449l0,0h-2.534l0,0v24.449h-11.232l0,0v2.419c-4.898-4.356-9.665-8.859-14.226-13.334v-40.788
						c13.777,7.209,28.454,18.876,45.082,36.105c3.986,4.13,7.958,8.066,11.92,11.827v8.553h-11.231l0,0v21.297
						C391.921,283.104,388.403,280.814,384.894,278.34z M412.006,292.835h8.415v-25.178c1.551,1.312,3.101,2.591,4.649,3.846v25.333
						C419.978,295.485,415.601,294.096,412.006,292.835z M450.069,301.761v-12.44c3.025,1.858,6.051,3.603,9.078,5.244v8.195
						C456.019,302.484,452.99,302.147,450.069,301.761z M489.137,305.161c0.599-0.032,1.199-0.066,1.803-0.104v0.635
						C490.338,305.516,489.737,305.346,489.137,305.161z M508.416,309.608h7.522l0,0l0,0v-7.603
						c5.79-1.051,11.723-2.369,17.778-3.993v9.573h-11.233l0,0l0,0v3.459C517.769,310.816,513.082,310.335,508.416,309.608z
						 M547.482,309.954v-2.368H536.25v-10.268c4.583-1.287,9.234-2.753,13.946-4.408v0.544l0,0h12.857v13.603
						C557.819,308.306,552.631,309.271,547.482,309.954z M565.586,306.444v-12.99h9.609v-10.533
						c6.607-2.872,13.074-5.86,19.403-8.963V296.4C584.749,300.667,575.09,304.022,565.586,306.444z M597.131,295.285v-22.584
						c2.641-1.315,5.265-2.644,7.856-3.999h3.378v-1.798c6.341-3.387,12.539-6.889,18.576-10.519v19.999h-11.233v9.63
						C609.435,289.456,603.246,292.548,597.131,295.285z M644.896,267.914c-4.324,2.978-8.606,5.799-12.848,8.471h-2.574v-21.548
						c5.447-3.329,10.769-6.757,15.963-10.283v22.985C645.255,267.664,645.077,267.788,644.896,267.914z M670.435,249.791v-23.748
						c1.884-1.521,3.754-3.053,5.597-4.604v15.263h9.967v1.325C680.993,241.929,675.808,245.844,670.435,249.791z M727.383,201.595
						h-7.094v-17.578h-2.534v17.578h-11.232l0,0v19.581c-1.803,1.567-3.634,3.133-5.492,4.696v-6.239h-12.499v-2.934l0,0h-2.533l0,0
						v2.934h-7.855c23.635-20.21,43.899-42.906,60.658-67.935v37.539C735.157,193.422,731.355,197.537,727.383,201.595z
						 M763.801,155.138v-16.049l0,0h-11.232v-9.872c6.657-11.94,12.588-24.349,17.779-37.211v41.883h4.904
						C771.731,141.283,767.918,148.344,763.801,155.138z"/>
				</g>
			</g>
			<rect y="384.975" style="fill:#9EF2F2;" width="750" height="115.025"/>
		</g>
		<g>
			<g>
				<g>
					<path style="opacity:0.6;fill:#7FD3CC;" d="M456.645,401.828c0,4.96-4.02,8.982-8.98,8.982H302.646
						c-4.96,0-8.981-4.022-8.981-8.982l0,0c0-4.96,4.021-8.979,8.981-8.979h145.019
						C452.625,392.849,456.645,396.868,456.645,401.828L456.645,401.828z"/>
					<g>
						<g>
							<polygon style="fill:#FFFFFF;" points="415.791,330.954 375.654,330.954 335.518,330.954 317.274,392.686 375.654,392.686 
								434.034,392.686 							"/>
							<rect x="307.924" y="388.975" style="fill:#CCD0DB;" width="135.461" height="11.135"/>
						</g>
						<path style="fill:#2E333B;" d="M598.332,343.549c0,6.462-5.239,11.7-11.701,11.7H164.678c-6.462,0-11.701-5.238-11.701-11.7
							V119.591c0-6.462,5.239-11.7,11.701-11.7h421.953c6.462,0,11.701,5.238,11.701,11.7V343.549z"/>
						<rect x="165.967" y="121.159" style="fill:#4D5866;" width="419.375" height="220.821"/>
					</g>
				</g>
				<g>
					<defs>
						
							<rect id="SVGID_00000050657142106950182400000016734202428777265288_" x="165.967" y="121.159" width="419.375" height="220.821"/>
					</defs>
					<clipPath id="SVGID_00000043428508866505344810000002310810195952446650_">
						<use xlink:href="#SVGID_00000050657142106950182400000016734202428777265288_"  style="overflow:visible;"/>
					</clipPath>
					<g style="clip-path:url(#SVGID_00000043428508866505344810000002310810195952446650_);">
						<g>
							
								<line style="fill:none;stroke:#8BB939;stroke-linecap:round;stroke-linejoin:round;" x1="160.072" y1="155.037" x2="162.572" y2="155.037"/>
							
								<line style="fill:none;stroke:#8BB939;stroke-linecap:round;stroke-linejoin:round;stroke-dasharray:5.0251,5.0251;" x1="167.597" y1="155.037" x2="587.193" y2="155.037"/>
							
								<line style="fill:none;stroke:#8BB939;stroke-linecap:round;stroke-linejoin:round;" x1="589.706" y1="155.037" x2="592.206" y2="155.037"/>
						</g>
					</g>
					<g style="clip-path:url(#SVGID_00000043428508866505344810000002310810195952446650_);">
						<g>
							
								<line style="fill:none;stroke:#CA2636;stroke-linecap:round;stroke-linejoin:round;" x1="160.072" y1="314.393" x2="162.572" y2="314.393"/>
							
								<line style="fill:none;stroke:#CA2636;stroke-linecap:round;stroke-linejoin:round;stroke-dasharray:5.0251,5.0251;" x1="167.597" y1="314.393" x2="587.193" y2="314.393"/>
							
								<line style="fill:none;stroke:#CA2636;stroke-linecap:round;stroke-linejoin:round;" x1="589.706" y1="314.393" x2="592.206" y2="314.393"/>
						</g>
					</g>
					<g style="clip-path:url(#SVGID_00000043428508866505344810000002310810195952446650_);">
						<g>
							<g>
								<g>
									<defs>
										
											<rect id="SVGID_00000029735616560447190350000016425139157261649796_" x="309.893" y="229.996" width="1.326" height="22.537"/>
									</defs>
									<use xlink:href="#SVGID_00000029735616560447190350000016425139157261649796_"  style="overflow:visible;fill:#CA2636;"/>
									<clipPath id="SVGID_00000007414834433862987560000001458663768170570629_">
										<use xlink:href="#SVGID_00000029735616560447190350000016425139157261649796_"  style="overflow:visible;"/>
									</clipPath>
									
										<rect x="309.893" y="229.996" style="clip-path:url(#SVGID_00000007414834433862987560000001458663768170570629_);fill:#CA2636;" width="1.326" height="22.537"/>
								</g>
								<g>
									<defs>
										
											<rect id="SVGID_00000165225974987799317300000006168269570364830626_" x="324.123" y="229.105" width="1.325" height="30.889"/>
									</defs>
									<use xlink:href="#SVGID_00000165225974987799317300000006168269570364830626_"  style="overflow:visible;fill:#CA2636;"/>
									<clipPath id="SVGID_00000176748170230899219560000005393189092132693636_">
										<use xlink:href="#SVGID_00000165225974987799317300000006168269570364830626_"  style="overflow:visible;"/>
									</clipPath>
									
										<rect x="324.123" y="229.105" style="clip-path:url(#SVGID_00000176748170230899219560000005393189092132693636_);fill:#CA2636;" width="1.325" height="30.889"/>
								</g>
								<g>
									<g>
										<defs>
											
												<rect id="SVGID_00000054981123155513711550000007628466323379583396_" x="166.794" y="158.086" width="1.325" height="53.426"/>
										</defs>
										<use xlink:href="#SVGID_00000054981123155513711550000007628466323379583396_"  style="overflow:visible;fill:#CA2636;"/>
										<clipPath id="SVGID_00000002376127993132203940000016793233291456631435_">
											<use xlink:href="#SVGID_00000054981123155513711550000007628466323379583396_"  style="overflow:visible;"/>
										</clipPath>
										
											<rect x="166.794" y="158.086" style="clip-path:url(#SVGID_00000002376127993132203940000016793233291456631435_);fill:#CA2636;" width="1.325" height="53.426"/>
									</g>
									<g>
										<defs>
											
												<rect id="SVGID_00000167398545805138564840000003557580928731696809_" x="160.916" y="181.338" width="13.08" height="26.574"/>
										</defs>
										<use xlink:href="#SVGID_00000167398545805138564840000003557580928731696809_"  style="overflow:visible;fill:#CA2636;"/>
										<clipPath id="SVGID_00000140016059026756735510000004243156192825277584_">
											<use xlink:href="#SVGID_00000167398545805138564840000003557580928731696809_"  style="overflow:visible;"/>
										</clipPath>
										
											<rect x="160.916" y="181.338" style="clip-path:url(#SVGID_00000140016059026756735510000004243156192825277584_);fill:#CA2636;" width="13.08" height="26.574"/>
									</g>
								</g>
								<g>
									<g>
										<defs>
											
												<rect id="SVGID_00000009565349276593550630000007805625941272817330_" x="242.622" y="226.265" width="1.325" height="29.108"/>
										</defs>
										<use xlink:href="#SVGID_00000009565349276593550630000007805625941272817330_"  style="overflow:visible;fill:#CA2636;"/>
										<clipPath id="SVGID_00000095340470259942348850000016812156568876704905_">
											<use xlink:href="#SVGID_00000009565349276593550630000007805625941272817330_"  style="overflow:visible;"/>
										</clipPath>
										
											<rect x="242.622" y="226.265" style="clip-path:url(#SVGID_00000095340470259942348850000016812156568876704905_);fill:#CA2636;" width="1.325" height="29.108"/>
									</g>
									<g>
										<defs>
											
												<rect id="SVGID_00000044173528717064928860000010340284824867030403_" x="236.745" y="245.525" width="13.079" height="8.102"/>
										</defs>
										<use xlink:href="#SVGID_00000044173528717064928860000010340284824867030403_"  style="overflow:visible;fill:#CA2636;"/>
										<clipPath id="SVGID_00000158002552117930648860000013276180879591898241_">
											<use xlink:href="#SVGID_00000044173528717064928860000010340284824867030403_"  style="overflow:visible;"/>
										</clipPath>
										
											<rect x="236.745" y="245.525" style="clip-path:url(#SVGID_00000158002552117930648860000013276180879591898241_);fill:#CA2636;" width="13.079" height="8.102"/>
									</g>
								</g>
								<g>
									<defs>
										
											<rect id="SVGID_00000046336104534860984710000015244970010906872508_" x="304.016" y="234.099" width="13.08" height="13.441"/>
									</defs>
									<use xlink:href="#SVGID_00000046336104534860984710000015244970010906872508_"  style="overflow:visible;fill:#CA2636;"/>
									<clipPath id="SVGID_00000060726006834390312800000010631763006373584782_">
										<use xlink:href="#SVGID_00000046336104534860984710000015244970010906872508_"  style="overflow:visible;"/>
									</clipPath>
									
										<rect x="304.016" y="234.099" style="clip-path:url(#SVGID_00000060726006834390312800000010631763006373584782_);fill:#CA2636;" width="13.08" height="13.441"/>
								</g>
								<g>
									<g>
										<defs>
											
												<rect id="SVGID_00000088109612557714878270000014964822163855932823_" x="318.246" y="249.162" width="13.08" height="8.931"/>
										</defs>
										<use xlink:href="#SVGID_00000088109612557714878270000014964822163855932823_"  style="overflow:visible;fill:#CA2636;"/>
										<clipPath id="SVGID_00000090265103692055515790000011209687111488595084_">
											<use xlink:href="#SVGID_00000088109612557714878270000014964822163855932823_"  style="overflow:visible;"/>
										</clipPath>
										
											<rect x="318.246" y="249.162" style="clip-path:url(#SVGID_00000090265103692055515790000011209687111488595084_);fill:#CA2636;" width="13.08" height="8.931"/>
									</g>
								</g>
								<g>
									<g>
										<defs>
											
												<rect id="SVGID_00000074428048514917691880000004421298560709463687_" x="357.519" y="213.358" width="1.326" height="80.536"/>
										</defs>
										<use xlink:href="#SVGID_00000074428048514917691880000004421298560709463687_"  style="overflow:visible;fill:#CA2636;"/>
										<clipPath id="SVGID_00000029018132553765825440000007620932680758007993_">
											<use xlink:href="#SVGID_00000074428048514917691880000004421298560709463687_"  style="overflow:visible;"/>
										</clipPath>
										
											<rect x="357.519" y="213.358" style="clip-path:url(#SVGID_00000029018132553765825440000007620932680758007993_);fill:#CA2636;" width="1.326" height="80.536"/>
									</g>
									<g>
										<defs>
											
												<rect id="SVGID_00000101808037737520763560000016593674402616233648_" x="351.642" y="275.775" width="13.08" height="11.067"/>
										</defs>
										<use xlink:href="#SVGID_00000101808037737520763560000016593674402616233648_"  style="overflow:visible;fill:#CA2636;"/>
										<clipPath id="SVGID_00000116207436989037852270000015884898900470402972_">
											<use xlink:href="#SVGID_00000101808037737520763560000016593674402616233648_"  style="overflow:visible;"/>
										</clipPath>
										
											<rect x="351.642" y="275.775" style="clip-path:url(#SVGID_00000116207436989037852270000015884898900470402972_);fill:#CA2636;" width="13.08" height="11.067"/>
									</g>
								</g>
								<g>
									<g>
										<defs>
											
												<rect id="SVGID_00000037693036780553331240000003093520468326452401_" x="404.183" y="235.991" width="1.325" height="67.818"/>
										</defs>
										<use xlink:href="#SVGID_00000037693036780553331240000003093520468326452401_"  style="overflow:visible;fill:#CA2636;"/>
										<clipPath id="SVGID_00000120546217419131542800000013957603072924386194_">
											<use xlink:href="#SVGID_00000037693036780553331240000003093520468326452401_"  style="overflow:visible;"/>
										</clipPath>
										
											<rect x="404.183" y="235.991" style="clip-path:url(#SVGID_00000120546217419131542800000013957603072924386194_);fill:#CA2636;" width="1.325" height="67.817"/>
									</g>
									<g>
										<defs>
											
												<rect id="SVGID_00000046299782466304773530000014014023859076320181_" x="398.306" y="253.475" width="13.08" height="42.904"/>
										</defs>
										<use xlink:href="#SVGID_00000046299782466304773530000014014023859076320181_"  style="overflow:visible;fill:#CA2636;"/>
										<clipPath id="SVGID_00000064347029988855292000000008584819470498527931_">
											<use xlink:href="#SVGID_00000046299782466304773530000014014023859076320181_"  style="overflow:visible;"/>
										</clipPath>
										
											<rect x="398.306" y="253.475" style="clip-path:url(#SVGID_00000064347029988855292000000008584819470498527931_);fill:#CA2636;" width="13.08" height="42.904"/>
									</g>
								</g>
								<g>
									<g>
										<defs>
											
												<rect id="SVGID_00000145039882136655677370000006690570742537361060_" x="455.153" y="275.623" width="1.325" height="15.314"/>
										</defs>
										<use xlink:href="#SVGID_00000145039882136655677370000006690570742537361060_"  style="overflow:visible;fill:#CA2636;"/>
										<clipPath id="SVGID_00000075866859682255244840000008299244657447770294_">
											<use xlink:href="#SVGID_00000145039882136655677370000006690570742537361060_"  style="overflow:visible;"/>
										</clipPath>
										
											<rect x="455.153" y="275.623" style="clip-path:url(#SVGID_00000075866859682255244840000008299244657447770294_);fill:#CA2636;" width="1.325" height="15.314"/>
									</g>
									<g>
										<defs>
											
												<rect id="SVGID_00000134242067845476391770000004095042673016954759_" x="449.276" y="285.202" width="13.08" height="4.46"/>
										</defs>
										<use xlink:href="#SVGID_00000134242067845476391770000004095042673016954759_"  style="overflow:visible;fill:#CA2636;"/>
										<clipPath id="SVGID_00000147186616359161123020000016722665067003327892_">
											<use xlink:href="#SVGID_00000134242067845476391770000004095042673016954759_"  style="overflow:visible;"/>
										</clipPath>
										
											<rect x="449.276" y="285.202" style="clip-path:url(#SVGID_00000147186616359161123020000016722665067003327892_);fill:#CA2636;" width="13.08" height="4.46"/>
									</g>
								</g>
								<g>
									<g>
										<defs>
											
												<rect id="SVGID_00000071550507924848750250000015415196789445494671_" x="503.932" y="257.12" width="1.325" height="22.536"/>
										</defs>
										<use xlink:href="#SVGID_00000071550507924848750250000015415196789445494671_"  style="overflow:visible;fill:#CA2636;"/>
										<clipPath id="SVGID_00000039092238809238591780000004878696304005457042_">
											<use xlink:href="#SVGID_00000071550507924848750250000015415196789445494671_"  style="overflow:visible;"/>
										</clipPath>
										
											<rect x="503.932" y="257.12" style="clip-path:url(#SVGID_00000039092238809238591780000004878696304005457042_);fill:#CA2636;" width="1.325" height="22.536"/>
									</g>
									<g>
										<defs>
											
												<rect id="SVGID_00000014600855600093470520000002731319255895223705_" x="498.055" y="268.877" width="13.079" height="8.931"/>
										</defs>
										<use xlink:href="#SVGID_00000014600855600093470520000002731319255895223705_"  style="overflow:visible;fill:#CA2636;"/>
										<clipPath id="SVGID_00000083057063205888530990000010530471849514002817_">
											<use xlink:href="#SVGID_00000014600855600093470520000002731319255895223705_"  style="overflow:visible;"/>
										</clipPath>
										
											<rect x="498.055" y="268.877" style="clip-path:url(#SVGID_00000083057063205888530990000010530471849514002817_);fill:#CA2636;" width="13.079" height="8.931"/>
									</g>
								</g>
							</g>
							<g>
								<g>
									<defs>
										
											<rect id="SVGID_00000052070818133607786080000010337623006577661598_" x="534.833" y="237.647" width="1.325" height="22.538"/>
									</defs>
									<use xlink:href="#SVGID_00000052070818133607786080000010337623006577661598_"  style="overflow:visible;fill:#8BB939;"/>
									<clipPath id="SVGID_00000108299325668280488050000010868754459798961039_">
										<use xlink:href="#SVGID_00000052070818133607786080000010337623006577661598_"  style="overflow:visible;"/>
									</clipPath>
									
										<rect x="534.833" y="237.647" style="clip-path:url(#SVGID_00000108299325668280488050000010868754459798961039_);fill:#8BB939;" width="1.325" height="22.538"/>
								</g>
								<g>
									<g>
										<defs>
											
												<rect id="SVGID_00000136398510866081892810000008667506533745462941_" x="519.486" y="233.259" width="1.325" height="52.947"/>
										</defs>
										<use xlink:href="#SVGID_00000136398510866081892810000008667506533745462941_"  style="overflow:visible;fill:#8BB939;"/>
										<clipPath id="SVGID_00000109005373659288821730000002026337987421767606_">
											<use xlink:href="#SVGID_00000136398510866081892810000008667506533745462941_"  style="overflow:visible;"/>
										</clipPath>
										
											<rect x="519.486" y="233.259" style="clip-path:url(#SVGID_00000109005373659288821730000002026337987421767606_);fill:#8BB939;" width="1.325" height="52.947"/>
									</g>
									<g>
										<defs>
											
												<rect id="SVGID_00000091002567094282451390000011366086540267720617_" x="513.609" y="236.465" width="13.08" height="46.696"/>
										</defs>
										<use xlink:href="#SVGID_00000091002567094282451390000011366086540267720617_"  style="overflow:visible;fill:#8BB939;"/>
										<clipPath id="SVGID_00000071551283767756478280000013817666276334376330_">
											<use xlink:href="#SVGID_00000091002567094282451390000011366086540267720617_"  style="overflow:visible;"/>
										</clipPath>
										
											<rect x="513.609" y="236.465" style="clip-path:url(#SVGID_00000071551283767756478280000013817666276334376330_);fill:#8BB939;" width="13.08" height="46.696"/>
									</g>
								</g>
								<g>
									<g>
										<g>
											<defs>
												
													<rect id="SVGID_00000046331677271017648390000015687988170991642802_" x="181.439" y="189.159" width="1.326" height="29.108"/>
											</defs>
											
												<use xlink:href="#SVGID_00000046331677271017648390000015687988170991642802_"  style="overflow:visible;fill:#8BB939;"/>
											<clipPath id="SVGID_00000044891083929984914990000008451248031939967412_">
												<use xlink:href="#SVGID_00000046331677271017648390000015687988170991642802_"  style="overflow:visible;"/>
											</clipPath>
											
												<rect x="181.439" y="189.159" style="clip-path:url(#SVGID_00000044891083929984914990000008451248031939967412_);fill:#8BB939;" width="1.326" height="29.108"/>
										</g>
										<g>
											<defs>
												
													<rect id="SVGID_00000102541209475240519360000008361985258196850607_" x="175.563" y="194.625" width="13.08" height="8.198"/>
											</defs>
											
												<use xlink:href="#SVGID_00000102541209475240519360000008361985258196850607_"  style="overflow:visible;fill:#8BB939;"/>
											<clipPath id="SVGID_00000077299413255502480230000011811414156572807569_">
												<use xlink:href="#SVGID_00000102541209475240519360000008361985258196850607_"  style="overflow:visible;"/>
											</clipPath>
											
												<rect x="175.563" y="194.625" style="clip-path:url(#SVGID_00000077299413255502480230000011811414156572807569_);fill:#8BB939;" width="13.08" height="8.198"/>
										</g>
									</g>
									<g>
										<g>
											<defs>
												
													<rect id="SVGID_00000015339499319695845470000011429078659584430728_" x="211.47" y="176.463" width="1.326" height="83.27"/>
											</defs>
											
												<use xlink:href="#SVGID_00000015339499319695845470000011429078659584430728_"  style="overflow:visible;fill:#8BB939;"/>
											<clipPath id="SVGID_00000142154609787255905540000001577746527488253583_">
												<use xlink:href="#SVGID_00000015339499319695845470000011429078659584430728_"  style="overflow:visible;"/>
											</clipPath>
											
												<rect x="211.47" y="176.463" style="clip-path:url(#SVGID_00000142154609787255905540000001577746527488253583_);fill:#8BB939;" width="1.326" height="83.27"/>
										</g>
										<g>
											<defs>
												
													<rect id="SVGID_00000083790492251094510400000010347396711106021782_" x="204.818" y="182.128" width="13.079" height="56.649"/>
											</defs>
											
												<use xlink:href="#SVGID_00000083790492251094510400000010347396711106021782_"  style="overflow:visible;fill:#8BB939;"/>
											<clipPath id="SVGID_00000170255963596493531910000003661777529035091369_">
												<use xlink:href="#SVGID_00000083790492251094510400000010347396711106021782_"  style="overflow:visible;"/>
											</clipPath>
											
												<rect x="204.818" y="182.128" style="clip-path:url(#SVGID_00000170255963596493531910000003661777529035091369_);fill:#8BB939;" width="13.079" height="56.649"/>
										</g>
									</g>
									<g>
										<g>
											<defs>
												
													<rect id="SVGID_00000067196005808270932600000007362994169638873776_" x="195.295" y="202.823" width="1.325" height="30.888"/>
											</defs>
											
												<use xlink:href="#SVGID_00000067196005808270932600000007362994169638873776_"  style="overflow:visible;fill:#8BB939;"/>
											<clipPath id="SVGID_00000123428667656117998420000002213292793775659710_">
												<use xlink:href="#SVGID_00000067196005808270932600000007362994169638873776_"  style="overflow:visible;"/>
											</clipPath>
											
												<rect x="195.295" y="202.823" style="clip-path:url(#SVGID_00000123428667656117998420000002213292793775659710_);fill:#8BB939;" width="1.325" height="30.888"/>
										</g>
										<g>
											<defs>
												
													<rect id="SVGID_00000168838692038931916200000012389705691626547117_" x="189.417" y="210.192" width="13.08" height="16.15"/>
											</defs>
											
												<use xlink:href="#SVGID_00000168838692038931916200000012389705691626547117_"  style="overflow:visible;fill:#8BB939;"/>
											<clipPath id="SVGID_00000118384769246921425580000003972984973423940276_">
												<use xlink:href="#SVGID_00000168838692038931916200000012389705691626547117_"  style="overflow:visible;"/>
											</clipPath>
											
												<rect x="189.417" y="210.192" style="clip-path:url(#SVGID_00000118384769246921425580000003972984973423940276_);fill:#8BB939;" width="13.08" height="16.15"/>
										</g>
									</g>
									<g>
										<g>
											<defs>
												
													<rect id="SVGID_00000160903906661222722810000008890097149013823135_" x="227.976" y="224.039" width="1.325" height="23.903"/>
											</defs>
											
												<use xlink:href="#SVGID_00000160903906661222722810000008890097149013823135_"  style="overflow:visible;fill:#8BB939;"/>
											<clipPath id="SVGID_00000055677100169961206140000010007009318835974042_">
												<use xlink:href="#SVGID_00000160903906661222722810000008890097149013823135_"  style="overflow:visible;"/>
											</clipPath>
											
												<rect x="227.976" y="224.039" style="clip-path:url(#SVGID_00000055677100169961206140000010007009318835974042_);fill:#8BB939;" width="1.325" height="23.903"/>
										</g>
										<g>
											<defs>
												
													<rect id="SVGID_00000000922032384293732140000000427906249195218866_" x="222.099" y="227.823" width="13.079" height="13.441"/>
											</defs>
											
												<use xlink:href="#SVGID_00000000922032384293732140000000427906249195218866_"  style="overflow:visible;fill:#8BB939;"/>
											<clipPath id="SVGID_00000160893423888234832610000008092437418418482843_">
												<use xlink:href="#SVGID_00000000922032384293732140000000427906249195218866_"  style="overflow:visible;"/>
											</clipPath>
											
												<rect x="222.099" y="227.823" style="clip-path:url(#SVGID_00000160893423888234832610000008092437418418482843_);fill:#8BB939;" width="13.079" height="13.441"/>
										</g>
									</g>
									<g>
										<g>
											<defs>
												
													<rect id="SVGID_00000140696595470480904790000000618776163176311949_" x="259.127" y="235.991" width="1.326" height="15.314"/>
											</defs>
											
												<use xlink:href="#SVGID_00000140696595470480904790000000618776163176311949_"  style="overflow:visible;fill:#8BB939;"/>
											<clipPath id="SVGID_00000178916004904145925760000009350263358429612199_">
												<use xlink:href="#SVGID_00000140696595470480904790000000618776163176311949_"  style="overflow:visible;"/>
											</clipPath>
											
												<rect x="259.127" y="235.991" style="clip-path:url(#SVGID_00000178916004904145925760000009350263358429612199_);fill:#8BB939;" width="1.326" height="15.314"/>
										</g>
										<g>
											<defs>
												
													<rect id="SVGID_00000161598648755131421880000001734028608164402871_" x="253.25" y="236.927" width="13.08" height="8.598"/>
											</defs>
											
												<use xlink:href="#SVGID_00000161598648755131421880000001734028608164402871_"  style="overflow:visible;fill:#8BB939;"/>
											<clipPath id="SVGID_00000061442221394895965850000016702697696282813084_">
												<use xlink:href="#SVGID_00000161598648755131421880000001734028608164402871_"  style="overflow:visible;"/>
											</clipPath>
											
												<rect x="253.25" y="236.927" style="clip-path:url(#SVGID_00000061442221394895965850000016702697696282813084_);fill:#8BB939;" width="13.08" height="8.598"/>
										</g>
									</g>
									<g>
										<g>
											<defs>
												
													<rect id="SVGID_00000103967122728118534780000000104162621004061613_" x="276.466" y="222.566" width="1.326" height="43.967"/>
											</defs>
											
												<use xlink:href="#SVGID_00000103967122728118534780000000104162621004061613_"  style="overflow:visible;fill:#8BB939;"/>
											<clipPath id="SVGID_00000161609532104630612320000001700902841551659960_">
												<use xlink:href="#SVGID_00000103967122728118534780000000104162621004061613_"  style="overflow:visible;"/>
											</clipPath>
											
												<rect x="276.466" y="222.566" style="clip-path:url(#SVGID_00000161609532104630612320000001700902841551659960_);fill:#8BB939;" width="1.326" height="43.967"/>
										</g>
										<g>
											<defs>
												
													<rect id="SVGID_00000011742906458084629440000000050558987780897165_" x="292.971" y="202.823" width="1.326" height="79.262"/>
											</defs>
											
												<use xlink:href="#SVGID_00000011742906458084629440000000050558987780897165_"  style="overflow:visible;fill:#8BB939;"/>
											<clipPath id="SVGID_00000182508875358001263080000006925774924180828565_">
												<use xlink:href="#SVGID_00000011742906458084629440000000050558987780897165_"  style="overflow:visible;"/>
											</clipPath>
											
												<rect x="292.971" y="202.823" style="clip-path:url(#SVGID_00000182508875358001263080000006925774924180828565_);fill:#8BB939;" width="1.326" height="79.262"/>
										</g>
										<g>
											<defs>
												
													<rect id="SVGID_00000174574106202210724130000008026241572800418467_" x="287.095" y="212.253" width="13.079" height="46.697"/>
											</defs>
											
												<use xlink:href="#SVGID_00000174574106202210724130000008026241572800418467_"  style="overflow:visible;fill:#8BB939;"/>
											<clipPath id="SVGID_00000126312137800317757060000014268441079721616531_">
												<use xlink:href="#SVGID_00000174574106202210724130000008026241572800418467_"  style="overflow:visible;"/>
											</clipPath>
											
												<rect x="287.095" y="212.253" style="clip-path:url(#SVGID_00000126312137800317757060000014268441079721616531_);fill:#8BB939;" width="13.079" height="46.697"/>
										</g>
										<g>
											<defs>
												
													<rect id="SVGID_00000067919270826729462480000009624256378015501755_" x="270.589" y="230.206" width="13.08" height="29.788"/>
											</defs>
											
												<use xlink:href="#SVGID_00000067919270826729462480000009624256378015501755_"  style="overflow:visible;fill:#8BB939;"/>
											<clipPath id="SVGID_00000088817262311009030510000017330560854846642617_">
												<use xlink:href="#SVGID_00000067919270826729462480000009624256378015501755_"  style="overflow:visible;"/>
											</clipPath>
											
												<rect x="270.589" y="230.206" style="clip-path:url(#SVGID_00000088817262311009030510000017330560854846642617_);fill:#8BB939;" width="13.08" height="29.788"/>
										</g>
									</g>
									<g>
										<g>
											<defs>
												
													<rect id="SVGID_00000142161261036607105780000006781923292499713695_" x="341.013" y="218.267" width="1.326" height="57.508"/>
											</defs>
											
												<use xlink:href="#SVGID_00000142161261036607105780000006781923292499713695_"  style="overflow:visible;fill:#8BB939;"/>
											<clipPath id="SVGID_00000085241328722244825390000003884426087634742188_">
												<use xlink:href="#SVGID_00000142161261036607105780000006781923292499713695_"  style="overflow:visible;"/>
											</clipPath>
											
												<rect x="341.013" y="218.267" style="clip-path:url(#SVGID_00000085241328722244825390000003884426087634742188_);fill:#8BB939;" width="1.326" height="57.508"/>
										</g>
										<g>
											<defs>
												
													<rect id="SVGID_00000149359824566898100520000006260511944774408122_" x="335.136" y="225.581" width="13.08" height="42.458"/>
											</defs>
											
												<use xlink:href="#SVGID_00000149359824566898100520000006260511944774408122_"  style="overflow:visible;fill:#8BB939;"/>
											<clipPath id="SVGID_00000100353376298581746560000011854050435158333372_">
												<use xlink:href="#SVGID_00000149359824566898100520000006260511944774408122_"  style="overflow:visible;"/>
											</clipPath>
											
												<rect x="335.136" y="225.581" style="clip-path:url(#SVGID_00000100353376298581746560000011854050435158333372_);fill:#8BB939;" width="13.08" height="42.458"/>
										</g>
									</g>
									<g>
										<g>
											<defs>
												
													<rect id="SVGID_00000139268619224686573080000007432947946040516031_" x="372.164" y="247.021" width="1.326" height="29.108"/>
											</defs>
											
												<use xlink:href="#SVGID_00000139268619224686573080000007432947946040516031_"  style="overflow:visible;fill:#8BB939;"/>
											<clipPath id="SVGID_00000160890609353847133200000012565189534559490226_">
												<use xlink:href="#SVGID_00000139268619224686573080000007432947946040516031_"  style="overflow:visible;"/>
											</clipPath>
											
												<rect x="372.164" y="247.021" style="clip-path:url(#SVGID_00000160890609353847133200000012565189534559490226_);fill:#8BB939;" width="1.326" height="29.108"/>
										</g>
										<g>
											<defs>
												
													<rect id="SVGID_00000178920246349612272190000004888971512944734875_" x="366.288" y="259.814" width="13.08" height="10.087"/>
											</defs>
											
												<use xlink:href="#SVGID_00000178920246349612272190000004888971512944734875_"  style="overflow:visible;fill:#8BB939;"/>
											<clipPath id="SVGID_00000058571754348184721920000010811226481772166334_">
												<use xlink:href="#SVGID_00000178920246349612272190000004888971512944734875_"  style="overflow:visible;"/>
											</clipPath>
											
												<rect x="366.288" y="259.814" style="clip-path:url(#SVGID_00000058571754348184721920000010811226481772166334_);fill:#8BB939;" width="13.08" height="10.087"/>
										</g>
									</g>
									<g>
										<g>
											<defs>
												
													<rect id="SVGID_00000003803170723686063890000013594235310231766718_" x="388.67" y="255.373" width="1.325" height="30.888"/>
											</defs>
											
												<use xlink:href="#SVGID_00000003803170723686063890000013594235310231766718_"  style="overflow:visible;fill:#8BB939;"/>
											<clipPath id="SVGID_00000109746945331751556150000003654981430001704069_">
												<use xlink:href="#SVGID_00000003803170723686063890000013594235310231766718_"  style="overflow:visible;"/>
											</clipPath>
											
												<rect x="388.67" y="255.373" style="clip-path:url(#SVGID_00000109746945331751556150000003654981430001704069_);fill:#8BB939;" width="1.325" height="30.888"/>
										</g>
										<g>
											<defs>
												
													<rect id="SVGID_00000160884520806529339140000018430247425065630904_" x="382.793" y="262.315" width="13.08" height="15.169"/>
											</defs>
											
												<use xlink:href="#SVGID_00000160884520806529339140000018430247425065630904_"  style="overflow:visible;fill:#8BB939;"/>
											<clipPath id="SVGID_00000119109697978181454510000009203760003332445314_">
												<use xlink:href="#SVGID_00000160884520806529339140000018430247425065630904_"  style="overflow:visible;"/>
											</clipPath>
											
												<rect x="382.793" y="262.315" style="clip-path:url(#SVGID_00000119109697978181454510000009203760003332445314_);fill:#8BB939;" width="13.08" height="15.169"/>
										</g>
									</g>
									<g>
										<g>
											<defs>
												
													<rect id="SVGID_00000183231451980015163380000000429574277221197460_" x="438.648" y="268.389" width="1.326" height="29.107"/>
											</defs>
											
												<use xlink:href="#SVGID_00000183231451980015163380000000429574277221197460_"  style="overflow:visible;fill:#8BB939;"/>
											<clipPath id="SVGID_00000170276788381507887090000018275187421711899325_">
												<use xlink:href="#SVGID_00000183231451980015163380000000429574277221197460_"  style="overflow:visible;"/>
											</clipPath>
											
												<rect x="438.648" y="268.389" style="clip-path:url(#SVGID_00000170276788381507887090000018275187421711899325_);fill:#8BB939;" width="1.326" height="29.107"/>
										</g>
										<g>
											<defs>
												
													<rect id="SVGID_00000111875297321162432440000009177790747719660690_" x="432.77" y="270.713" width="13.08" height="15.548"/>
											</defs>
											
												<use xlink:href="#SVGID_00000111875297321162432440000009177790747719660690_"  style="overflow:visible;fill:#8BB939;"/>
											<clipPath id="SVGID_00000030454531054016395870000002071544563595998870_">
												<use xlink:href="#SVGID_00000111875297321162432440000009177790747719660690_"  style="overflow:visible;"/>
											</clipPath>
											
												<rect x="432.77" y="270.713" style="clip-path:url(#SVGID_00000030454531054016395870000002071544563595998870_);fill:#8BB939;" width="13.08" height="15.548"/>
										</g>
									</g>
									<g>
										<g>
											<defs>
												
													<rect id="SVGID_00000090295966857394791720000015220089318006781090_" x="422.014" y="268.039" width="1.326" height="23.902"/>
											</defs>
											
												<use xlink:href="#SVGID_00000090295966857394791720000015220089318006781090_"  style="overflow:visible;fill:#8BB939;"/>
											<clipPath id="SVGID_00000137121896042199373970000010955495762343646369_">
												<use xlink:href="#SVGID_00000090295966857394791720000015220089318006781090_"  style="overflow:visible;"/>
											</clipPath>
											
												<rect x="422.014" y="268.039" style="clip-path:url(#SVGID_00000137121896042199373970000010955495762343646369_);fill:#8BB939;" width="1.326" height="23.902"/>
										</g>
										<g>
											<defs>
												
													<rect id="SVGID_00000110438025560614841640000016360094982575765151_" x="416.136" y="275.19" width="13.081" height="8.932"/>
											</defs>
											
												<use xlink:href="#SVGID_00000110438025560614841640000016360094982575765151_"  style="overflow:visible;fill:#8BB939;"/>
											<clipPath id="SVGID_00000088840438663441141600000006431035053525904296_">
												<use xlink:href="#SVGID_00000110438025560614841640000016360094982575765151_"  style="overflow:visible;"/>
											</clipPath>
											
												<rect x="416.136" y="275.19" style="clip-path:url(#SVGID_00000088840438663441141600000006431035053525904296_);fill:#8BB939;" width="13.081" height="8.932"/>
										</g>
									</g>
									<g>
										<g>
											<defs>
												
													<rect id="SVGID_00000034802578120547275830000009612512155385499280_" x="470.504" y="258.007" width="1.325" height="43.968"/>
											</defs>
											
												<use xlink:href="#SVGID_00000034802578120547275830000009612512155385499280_"  style="overflow:visible;fill:#8BB939;"/>
											<clipPath id="SVGID_00000125571746601453073450000007205267266683589560_">
												<use xlink:href="#SVGID_00000034802578120547275830000009612512155385499280_"  style="overflow:visible;"/>
											</clipPath>
											
												<rect x="470.504" y="258.007" style="clip-path:url(#SVGID_00000125571746601453073450000007205267266683589560_);fill:#8BB939;" width="1.325" height="43.968"/>
										</g>
										<g>
											<defs>
												
													<rect id="SVGID_00000039100906315926685980000016622504435827251605_" x="463.776" y="268.877" width="13.08" height="8.931"/>
											</defs>
											
												<use xlink:href="#SVGID_00000039100906315926685980000016622504435827251605_"  style="overflow:visible;fill:#8BB939;"/>
											<clipPath id="SVGID_00000044871549015493155710000009335240436649376669_">
												<use xlink:href="#SVGID_00000039100906315926685980000016622504435827251605_"  style="overflow:visible;"/>
											</clipPath>
											
												<rect x="463.776" y="268.877" style="clip-path:url(#SVGID_00000044871549015493155710000009335240436649376669_);fill:#8BB939;" width="13.08" height="8.931"/>
										</g>
									</g>
									<g>
										<g>
											<defs>
												
													<rect id="SVGID_00000132087967268992949900000001427097984462609315_" x="487.009" y="233.711" width="1.325" height="79.263"/>
											</defs>
											
												<use xlink:href="#SVGID_00000132087967268992949900000001427097984462609315_"  style="overflow:visible;fill:#8BB939;"/>
											<clipPath id="SVGID_00000158024652116331325480000009087982726909221810_">
												<use xlink:href="#SVGID_00000132087967268992949900000001427097984462609315_"  style="overflow:visible;"/>
											</clipPath>
											
												<rect x="487.009" y="233.711" style="clip-path:url(#SVGID_00000158024652116331325480000009087982726909221810_);fill:#8BB939;" width="1.325" height="79.263"/>
										</g>
										<g>
											<defs>
												
													<rect id="SVGID_00000180329786833942855180000003173137217647053452_" x="481.132" y="248.915" width="13.081" height="15.942"/>
											</defs>
											
												<use xlink:href="#SVGID_00000180329786833942855180000003173137217647053452_"  style="overflow:visible;fill:#8BB939;"/>
											<clipPath id="SVGID_00000154417624341681564130000002958853082456556680_">
												<use xlink:href="#SVGID_00000180329786833942855180000003173137217647053452_"  style="overflow:visible;"/>
											</clipPath>
											
												<rect x="481.132" y="248.915" style="clip-path:url(#SVGID_00000154417624341681564130000002958853082456556680_);fill:#8BB939;" width="13.081" height="15.942"/>
										</g>
										<g>
											<g>
												<defs>
													
														<rect id="SVGID_00000096026190949127193020000011333472817583048095_" x="551.449" y="220.547" width="1.325" height="30.889"/>
												</defs>
												
													<use xlink:href="#SVGID_00000096026190949127193020000011333472817583048095_"  style="overflow:visible;fill:#8BB939;"/>
												<clipPath id="SVGID_00000148635564741064861790000014779153723656276625_">
													<use xlink:href="#SVGID_00000096026190949127193020000011333472817583048095_"  style="overflow:visible;"/>
												</clipPath>
												
													<rect x="551.449" y="220.547" style="clip-path:url(#SVGID_00000148635564741064861790000014779153723656276625_);fill:#8BB939;" width="1.325" height="30.889"/>
											</g>
											<g>
												<defs>
													
														<rect id="SVGID_00000137127139207916470440000013684188907100631452_" x="568.34" y="191.792" width="1.324" height="57.509"/>
												</defs>
												
													<use xlink:href="#SVGID_00000137127139207916470440000013684188907100631452_"  style="overflow:visible;fill:#8BB939;"/>
												<clipPath id="SVGID_00000002370145434647533810000017715020429597104547_">
													<use xlink:href="#SVGID_00000137127139207916470440000013684188907100631452_"  style="overflow:visible;"/>
												</clipPath>
												
													<rect x="568.34" y="191.792" style="clip-path:url(#SVGID_00000002370145434647533810000017715020429597104547_);fill:#8BB939;" width="1.324" height="57.509"/>
											</g>
											<g>
												<defs>
													
														<rect id="SVGID_00000150071550412388447220000000985730594243772822_" x="584.845" y="163.445" width="1.325" height="80.536"/>
												</defs>
												
													<use xlink:href="#SVGID_00000150071550412388447220000000985730594243772822_"  style="overflow:visible;fill:#8BB939;"/>
												<clipPath id="SVGID_00000132798718515997232180000001657459652614659714_">
													<use xlink:href="#SVGID_00000150071550412388447220000000985730594243772822_"  style="overflow:visible;"/>
												</clipPath>
												
													<rect x="584.845" y="163.445" style="clip-path:url(#SVGID_00000132798718515997232180000001657459652614659714_);fill:#8BB939;" width="1.325" height="80.536"/>
											</g>
											<g>
												<defs>
													
														<rect id="SVGID_00000132770052738263522860000003770512012420905638_" x="545.572" y="229.744" width="13.08" height="13.441"/>
												</defs>
												
													<use xlink:href="#SVGID_00000132770052738263522860000003770512012420905638_"  style="overflow:visible;fill:#8BB939;"/>
												<clipPath id="SVGID_00000088820292831014651410000006080287865067076797_">
													<use xlink:href="#SVGID_00000132770052738263522860000003770512012420905638_"  style="overflow:visible;"/>
												</clipPath>
												
													<rect x="545.572" y="229.744" style="clip-path:url(#SVGID_00000088820292831014651410000006080287865067076797_);fill:#8BB939;" width="13.08" height="13.441"/>
											</g>
											<g>
												<defs>
													
														<rect id="SVGID_00000088851581640552835160000017047887347865884063_" x="562.462" y="197.039" width="13.079" height="42.457"/>
												</defs>
												
													<use xlink:href="#SVGID_00000088851581640552835160000017047887347865884063_"  style="overflow:visible;fill:#8BB939;"/>
												<clipPath id="SVGID_00000034063167078312573670000007353769610089684116_">
													<use xlink:href="#SVGID_00000088851581640552835160000017047887347865884063_"  style="overflow:visible;"/>
												</clipPath>
												
													<rect x="562.462" y="197.039" style="clip-path:url(#SVGID_00000034063167078312573670000007353769610089684116_);fill:#8BB939;" width="13.079" height="42.457"/>
											</g>
											<g>
												<defs>
													
														<rect id="SVGID_00000114033736490010881310000016114387346918599089_" x="578.968" y="168.444" width="13.079" height="25.874"/>
												</defs>
												
													<use xlink:href="#SVGID_00000114033736490010881310000016114387346918599089_"  style="overflow:visible;fill:#8BB939;"/>
												<clipPath id="SVGID_00000043458573685869260230000003315470165322642334_">
													<use xlink:href="#SVGID_00000114033736490010881310000016114387346918599089_"  style="overflow:visible;"/>
												</clipPath>
												
													<rect x="578.968" y="168.444" style="clip-path:url(#SVGID_00000043458573685869260230000003315470165322642334_);fill:#8BB939;" width="13.079" height="25.874"/>
											</g>
										</g>
									</g>
								</g>
								<g>
									<defs>
										
											<rect id="SVGID_00000117654766729904489150000006339071699130902943_" x="529.618" y="239.182" width="13.08" height="8.931"/>
									</defs>
									<use xlink:href="#SVGID_00000117654766729904489150000006339071699130902943_"  style="overflow:visible;fill:#8BB939;"/>
									<clipPath id="SVGID_00000031928441655333862250000001470556678177560965_">
										<use xlink:href="#SVGID_00000117654766729904489150000006339071699130902943_"  style="overflow:visible;"/>
									</clipPath>
									
										<rect x="529.618" y="239.182" style="clip-path:url(#SVGID_00000031928441655333862250000001470556678177560965_);fill:#8BB939;" width="13.08" height="8.931"/>
								</g>
							</g>
						</g>
						<path style="fill:none;stroke:#CA2636;stroke-linecap:round;stroke-linejoin:round;stroke-miterlimit:10;" d="
							M145.972,148.904c0,0,30.916-6.641,36.794,19.54c5.877,26.181,48.694,109.399,95.026,85.031
							c46.331-24.369,65.779-42.806,105.001-2.17c39.221,40.637,78.125,49.835,130.816,13.552
							c52.691-36.282,76.918-63.755,84.723-135.184"/>
						<path style="fill:none;stroke:#8BB939;stroke-linecap:round;stroke-linejoin:round;stroke-miterlimit:10;" d="M157.99,174.641
							c0,0,19.398-0.171,28.656,22.398c9.258,22.569,7.936,42.076,29.097,44.226c21.161,2.15,22.869,7.551,31.493,14.108
							c8.625,6.558,23.127,13.33,42.548-8.352c19.421-21.682,42.483-19.991,52.555-9.374c10.07,10.617,30.135,33.347,47.656,39.837
							c17.522,6.489,45.736,10.508,77.478-1.861c31.742-12.37,107.265-48.057,122.415-145.184"/>
					</g>
				</g>
			</g>
			<g>
				<g>
					
						<rect x="455.797" y="392.252" transform="matrix(0.9634 -0.2682 0.2682 0.9634 -93.5453 153.0746)" style="fill-rule:evenodd;clip-rule:evenodd;fill:#8BB939;" width="115.5" height="53.404"/>
					<g>
						
							<rect x="533.629" y="422.523" transform="matrix(0.9634 -0.2682 0.2682 0.9634 -93.4715 162.2445)" style="fill-rule:evenodd;clip-rule:evenodd;fill:#729424;" width="27.012" height="1.475"/>
						<path style="fill-rule:evenodd;clip-rule:evenodd;fill:#729424;" d="M468.752,455.435l101.996-28.395l-12.407-44.567
							l-101.996,28.395L468.752,455.435L468.752,455.435z M463.333,418.026c3.593-1,5.694-4.725,4.694-8.316l79.713-22.191
							c1,3.593,4.725,5.694,8.317,4.694l7.702,27.668c-3.593,1-5.695,4.725-4.695,8.316l-79.712,22.191
							c-1-3.593-4.725-5.695-8.317-4.694L463.333,418.026z"/>
						<g>
							<path style="fill-rule:evenodd;clip-rule:evenodd;fill:#729424;" d="M518.459,436.601
								c9.745-2.712,15.447-12.815,12.735-22.56c-2.714-9.745-12.816-15.448-22.56-12.735c-9.745,2.713-15.448,12.815-12.735,22.561
								C498.611,433.611,508.715,439.314,518.459,436.601L518.459,436.601z M529.848,414.415c2.506,9.002-2.762,18.334-11.763,20.84
								c-9.002,2.506-18.334-2.762-20.84-11.764c-2.506-9.001,2.762-18.333,11.763-20.839
								C518.01,400.147,527.342,405.414,529.848,414.415z"/>
							<g>
								<path style="fill:#729424;" d="M521.926,419.979c0.861,3.108-1.117,5.419-4.16,6.613l1.017,3.67l-3.53,0.978l-1.055-3.811
									c-2.161,0.195-4.381-0.096-6.201-0.851l0.801-4.198c2.078,0.96,5.111,1.277,6.795,0.812
									c1.028-0.285,1.586-0.816,1.379-1.565c-0.687-2.478-8.809,1.457-10.408-4.317c-0.698-2.525,0.517-4.774,3.124-6.176
									l-1.022-3.694l3.529-0.978l0.977,3.53c2.133-0.389,4.378-0.28,6.116,0.271l-0.765,4.239
									c-1.948-0.492-4.573-0.697-5.952-0.315c-0.818,0.227-1.278,0.656-1.11,1.264
									C512.126,417.859,520.288,414.064,521.926,419.979z"/>
							</g>
						</g>
					</g>
				</g>
				<g>
					
						<rect x="579.813" y="286.943" transform="matrix(0.4823 -0.876 0.876 0.4823 16.7711 702.9081)" style="fill-rule:evenodd;clip-rule:evenodd;fill:#8BB939;" width="46.535" height="100.645"/>
					<g>
						
							<rect x="620.727" y="348.653" transform="matrix(0.4823 -0.876 0.876 0.4823 5.947 730.9069)" style="fill-rule:evenodd;clip-rule:evenodd;fill:#729424;" width="1.285" height="23.538"/>
						<path style="fill-rule:evenodd;clip-rule:evenodd;fill:#729424;" d="M552.95,332.674l80.818,44.496l19.442-35.313
							l-80.818-44.496L552.95,332.674L552.95,332.674z M572.38,306.078c2.846,1.567,6.426,0.53,7.992-2.316l63.162,34.774
							c-1.567,2.846-0.53,6.426,2.316,7.993l-12.069,21.922c-2.847-1.566-6.426-0.529-7.993,2.317l-63.161-34.774
							c1.566-2.847,0.529-6.426-2.317-7.993L572.38,306.078z"/>
						<g>
							<path style="fill-rule:evenodd;clip-rule:evenodd;fill:#729424;" d="M595.382,351.248c7.722,4.251,17.431,1.437,21.682-6.284
								c4.251-7.722,1.437-17.431-6.284-21.683c-7.722-4.251-17.432-1.437-21.683,6.285
								C584.846,337.288,587.66,346.997,595.382,351.248L595.382,351.248z M615.997,344.376c-3.927,7.133-12.896,9.732-20.028,5.806
								c-7.133-3.927-9.733-12.896-5.806-20.028c3.928-7.133,12.896-9.732,20.028-5.806
								C617.324,328.275,619.924,337.244,615.997,344.376z"/>
							<g>
								<path style="fill:#729424;" d="M607.673,343.012c-1.359,2.461-3.999,2.692-6.622,1.582l-1.604,2.904l-2.794-1.543
									l1.666-3.016c-1.465-1.195-2.669-2.73-3.342-4.31l3.058-2.126c0.709,1.864,2.403,3.911,3.735,4.647
									c0.815,0.449,1.485,0.458,1.813-0.134c1.084-1.961-6.373-4.463-3.849-9.033c1.104-1.998,3.232-2.658,5.71-1.94l1.614-2.924
									l2.794,1.543l-1.543,2.794c1.565,1.059,2.896,2.494,3.643,3.896l-3.06,2.174c-0.913-1.495-2.422-3.222-3.514-3.825
									c-0.647-0.357-1.196-0.371-1.462,0.11C602.863,335.718,610.259,338.33,607.673,343.012z"/>
							</g>
						</g>
					</g>
				</g>
				<g>
					
						<rect x="297.083" y="52.852" transform="matrix(0.4823 -0.876 0.876 0.4823 75.4646 334.0424)" style="fill-rule:evenodd;clip-rule:evenodd;fill:#8BB939;" width="46.535" height="100.644"/>
					<g>
						
							<rect x="337.997" y="114.562" transform="matrix(0.4823 -0.876 0.876 0.4823 64.6488 362.0542)" style="fill-rule:evenodd;clip-rule:evenodd;fill:#729424;" width="1.285" height="23.538"/>
						<path style="fill-rule:evenodd;clip-rule:evenodd;fill:#729424;" d="M270.22,98.583l80.818,44.496l19.442-35.314
							L289.662,63.27L270.22,98.583L270.22,98.583z M289.649,71.987c2.847,1.567,6.426,0.53,7.993-2.317l63.161,34.774
							c-1.567,2.847-0.529,6.426,2.317,7.993l-12.07,21.923c-2.847-1.567-6.426-0.53-7.993,2.317l-63.161-34.774
							c1.567-2.847,0.529-6.426-2.317-7.993L289.649,71.987z"/>
						<g>
							<path style="fill-rule:evenodd;clip-rule:evenodd;fill:#729424;" d="M312.651,117.157c7.722,4.251,17.431,1.437,21.682-6.284
								c4.251-7.722,1.438-17.431-6.284-21.682c-7.722-4.251-17.431-1.437-21.682,6.285
								C302.115,103.197,304.93,112.906,312.651,117.157L312.651,117.157z M333.267,110.285c-3.927,7.133-12.896,9.732-20.028,5.806
								c-7.132-3.927-9.731-12.896-5.805-20.028s12.896-9.732,20.028-5.805C334.594,94.185,337.193,103.153,333.267,110.285z"/>
							<g>
								<path style="fill:#729424;" d="M324.942,108.921c-1.359,2.46-3.999,2.693-6.622,1.583l-1.603,2.904l-2.794-1.543
									l1.666-3.016c-1.465-1.196-2.67-2.73-3.343-4.31l3.058-2.126c0.709,1.864,2.404,3.911,3.736,4.646
									c0.813,0.45,1.485,0.459,1.813-0.133c1.083-1.961-6.374-4.462-3.85-9.033c1.104-1.998,3.232-2.658,5.71-1.94l1.615-2.924
									l2.794,1.543l-1.544,2.794c1.565,1.058,2.897,2.494,3.644,3.896l-3.061,2.173c-0.913-1.494-2.422-3.222-3.514-3.825
									c-0.647-0.358-1.196-0.371-1.462,0.11C320.133,101.627,327.529,104.239,324.942,108.921z"/>
							</g>
						</g>
					</g>
				</g>
				<g>
					<path style="fill-rule:evenodd;clip-rule:evenodd;fill:#8BB939;" d="M657.949,199.879
						c-17.818,20.227-40.972,31.536-67.307,36.289c7.593,11.669,16.362,21.874,26.595,31.309
						c28.473-9.999,52.591-26.621,69.928-51.523C676.639,211.96,666.773,206.945,657.949,199.879z"/>
					<g>
						<path style="fill-rule:evenodd;clip-rule:evenodd;fill:#729424;" d="M660.876,233.188c4.689-4.253,9.011-8.644,13.167-13.418
							c-0.35-0.173-0.524-0.26-0.87-0.436c-4.156,4.743-8.478,9.102-13.164,13.322C660.354,232.869,660.528,232.976,660.876,233.188
							z"/>
						<path style="fill-rule:evenodd;clip-rule:evenodd;fill:#729424;" d="M618.968,264.263
							c25.704-9.479,47.572-24.44,64.099-46.434c-9.047-3.823-17.574-8.355-25.325-14.438c-16.849,18.24-37.91,29.005-62.027,34.338
							C602.554,247.496,610.217,256.166,618.968,264.263L618.968,264.263z M603.1,242.149c2.789-0.71,3.596-3.09,1.993-5.242
							c18.499-5.567,34.653-14.293,48.733-27.583c1.779,1.454,4.654,1.219,6.218-0.512c5.091,3.481,10.234,6.508,15.733,9.301
							c-1.567,1.967-1.142,4.441,1.149,5.484c-14.007,16.037-30.718,27.683-50.186,36.212c-2.216-1.869-6.191-2.535-9.075-1.531
							C612.458,253.161,607.651,247.856,603.1,242.149z"/>
						<g>
							<path style="fill-rule:evenodd;clip-rule:evenodd;fill:#729424;" d="M653.352,242.882c5.675-3.863,5.522-11.352-0.025-15.204
								c-5.652-3.924-13.709-4.112-19.664-0.766c-5.616,3.156-7.647,10.413-2.38,15.016
								C637.231,247.128,646.925,247.322,653.352,242.882L653.352,242.882z M652.575,228.287c5.14,3.58,5.149,10.497-0.063,14.044
								c-5.914,4.025-14.814,3.882-20.303-0.874c-4.878-4.226-3.093-10.95,2.114-13.884
								C639.892,224.436,647.291,224.607,652.575,228.287z"/>
							<g>
								<path style="fill:#729424;" d="M649.26,233.482c1.778,1.326,1.308,3.085-0.446,4.58c0.865,0.629,1.303,0.94,2.188,1.555
									c-0.879,0.624-1.323,0.933-2.223,1.543c-0.917-0.653-1.37-0.984-2.265-1.653c-1.527,0.703-3.31,1.141-4.964,1.199
									c-0.372-0.969-0.555-1.455-0.913-2.427c1.89-0.001,4.249-0.643,5.301-1.347c0.642-0.431,0.843-0.862,0.415-1.19
									c-1.415-1.088-6.007,3.106-9.132,0.347c-1.365-1.207-1.181-2.697,0.234-4.049c-0.774-0.705-1.156-1.06-1.909-1.776
									c0.883-0.521,1.32-0.785,2.185-1.32c0.723,0.672,1.089,1.005,1.83,1.666c1.377-0.721,2.969-1.229,4.356-1.401
									c0.373,0.968,0.563,1.451,0.951,2.416c-1.539,0.269-3.469,0.826-4.327,1.368c-0.509,0.322-0.696,0.662-0.367,0.945
									C641.477,235.059,645.876,230.959,649.26,233.482z"/>
							</g>
						</g>
					</g>
				</g>
				<g>
					<path style="fill-rule:evenodd;clip-rule:evenodd;fill:#8BB939;" d="M511.348,43.895
						c-17.818,20.227-40.972,31.536-67.306,36.29c7.592,11.668,16.361,21.875,26.594,31.308
						c28.473-9.999,52.592-26.62,69.928-51.523C530.037,55.975,520.173,50.961,511.348,43.895z"/>
					<g>
						<path style="fill-rule:evenodd;clip-rule:evenodd;fill:#729424;" d="M514.275,77.203c4.688-4.253,9.01-8.644,13.166-13.418
							c-0.35-0.173-0.523-0.26-0.869-0.436c-4.157,4.742-8.478,9.102-13.165,13.322C513.753,76.885,513.927,76.991,514.275,77.203z"
							/>
						<path style="fill-rule:evenodd;clip-rule:evenodd;fill:#729424;" d="M472.367,108.278
							c25.703-9.479,47.571-24.44,64.098-46.434c-9.046-3.823-17.573-8.354-25.325-14.438c-16.849,18.24-37.91,29.005-62.027,34.338
							C455.952,91.511,463.616,100.181,472.367,108.278L472.367,108.278z M456.498,86.165c2.79-0.71,3.597-3.09,1.993-5.242
							c18.5-5.567,34.653-14.293,48.734-27.583c1.778,1.454,4.653,1.218,6.217-0.513c5.091,3.481,10.235,6.508,15.733,9.301
							c-1.566,1.967-1.142,4.441,1.149,5.483c-14.007,16.037-30.718,27.683-50.186,36.212c-2.215-1.869-6.191-2.534-9.075-1.531
							C465.856,97.177,461.051,91.872,456.498,86.165z"/>
						<g>
							<path style="fill-rule:evenodd;clip-rule:evenodd;fill:#729424;" d="M506.75,86.897c5.675-3.863,5.522-11.352-0.024-15.204
								c-5.652-3.924-13.709-4.112-19.665-0.766c-5.615,3.156-7.646,10.413-2.38,15.016
								C490.631,91.144,500.324,91.337,506.75,86.897L506.75,86.897z M505.974,72.302c5.14,3.579,5.15,10.497-0.062,14.044
								c-5.915,4.025-14.814,3.882-20.304-0.874c-4.878-4.226-3.093-10.95,2.114-13.884
								C493.29,68.452,500.689,68.622,505.974,72.302z"/>
							<g>
								<path style="fill:#729424;" d="M502.658,77.498c1.778,1.326,1.308,3.085-0.445,4.58c0.864,0.629,1.302,0.94,2.188,1.555
									c-0.88,0.625-1.324,0.934-2.223,1.543c-0.917-0.653-1.37-0.984-2.266-1.652c-1.526,0.703-3.31,1.141-4.963,1.198
									c-0.373-0.969-0.556-1.455-0.914-2.427c1.891-0.001,4.25-0.643,5.301-1.347c0.643-0.431,0.843-0.861,0.416-1.19
									c-1.415-1.088-6.008,3.106-9.132,0.346c-1.366-1.206-1.182-2.697,0.234-4.049c-0.775-0.705-1.157-1.06-1.91-1.776
									c0.884-0.52,1.32-0.784,2.186-1.32c0.722,0.671,1.088,1.005,1.83,1.666c1.376-0.72,2.968-1.229,4.355-1.4
									c0.373,0.968,0.563,1.451,0.95,2.415c-1.539,0.269-3.469,0.826-4.327,1.368c-0.509,0.321-0.696,0.662-0.367,0.945
									C494.876,79.074,499.274,74.974,502.658,77.498z"/>
							</g>
						</g>
					</g>
				</g>
			</g>
			<g>
				<path style="opacity:0.6;fill:#7FD3CC;" d="M181.73,429.592c0,4.96-4.02,8.981-8.981,8.981H71.815
					c-4.959,0-8.98-4.021-8.98-8.981l0,0c0-4.96,4.021-8.979,8.98-8.979h100.934C177.71,420.612,181.73,424.632,181.73,429.592
					L181.73,429.592z"/>
				<g>
					<g>
						<g>
							<g>
								<g>
									<g>
										<g>
											<g>
												<g>
													<g>
														<g>
															<g>
																<path style="fill:#2E333B;" d="M155.593,432.15H89.837c-7.945-0.036-14.66-6.811-14.627-14.756l0.7-165.611
																	c0.034-7.949,6.507-14.365,14.456-14.329l66.06,0.305c7.944,0.037,14.356,6.505,14.323,14.45l-0.7,165.612
																	C170.015,425.772,163.542,432.188,155.593,432.15z"/>
															</g>
														</g>
													</g>
												</g>
											</g>
										</g>
									</g>
								</g>
							</g>
						</g>
						<path style="fill:#4D5866;" d="M165.571,251.928c0-3.923-5.08-8.328-9.24-8.348l-12.808-0.059
							c-1.718-0.008-3.116,1.442-3.123,3.237l-0.011,2.323c-0.007,1.795-1.406,3.245-3.123,3.237l-24.966-0.115
							c-1.717-0.008-3.103-1.471-3.096-3.266l0.01-2.323c0.008-1.795-1.379-3.258-3.097-3.266l-4.504-0.021l-11.21-0.052
							c-4.76-0.021-9.83,4.414-9.83,11.17c0,6.755,0,154.198,0,160.699c0,6.5,5.048,9.917,9.054,9.936l65.927,0.305
							c5.105,0.023,10.017-5.661,10.017-11.069S165.571,255.849,165.571,251.928z"/>
					</g>
					<g>
						<defs>
							<path id="SVGID_00000001654016486144308050000000518747719374218123_" d="M165.571,251.928c0-3.923-5.08-8.328-9.24-8.348
								l-12.808-0.059c-1.718-0.008-3.116,1.442-3.123,3.237l-0.011,2.323c-0.007,1.795-1.406,3.245-3.123,3.237l-24.966-0.115
								c-1.717-0.008-3.103-1.471-3.096-3.266l0.01-2.323c0.008-1.795-1.379-3.258-3.097-3.266l-4.504-0.021l-11.21-0.052
								c-4.76-0.021-9.83,4.414-9.83,11.17c0,6.755,0,154.198,0,160.699c0,6.5,5.048,9.917,9.054,9.936l65.927,0.305
								c5.105,0.023,10.017-5.661,10.017-11.069S165.571,255.849,165.571,251.928z"/>
						</defs>
						<clipPath id="SVGID_00000050622310943482902390000014511987088639250360_">
							<use xlink:href="#SVGID_00000001654016486144308050000000518747719374218123_"  style="overflow:visible;"/>
						</clipPath>
						<g style="clip-path:url(#SVGID_00000050622310943482902390000014511987088639250360_);">
							
								<path style="fill:none;stroke:#CA2636;stroke-width:0.4323;stroke-linecap:round;stroke-linejoin:round;stroke-miterlimit:10;" d="
								M45.008,294.241c0,0,13.364-2.871,15.905,8.446c2.54,11.317,21.049,47.289,41.076,36.756
								c20.028-10.534,28.435-18.504,45.389-0.938c16.954,17.565,33.771,21.542,56.548,5.857
								c22.777-15.684,33.249-27.559,36.623-58.436"/>
							
								<path style="fill:none;stroke:#8BB939;stroke-width:0.4323;stroke-linecap:round;stroke-linejoin:round;stroke-miterlimit:10;" d="
								M50.203,305.366c0,0,8.386-0.074,12.388,9.682c4.002,9.756,3.43,18.188,12.577,19.117c9.147,0.93,9.886,3.265,13.613,6.099
								c3.729,2.835,9.997,5.763,18.393-3.609c8.395-9.373,18.364-8.642,22.717-4.053c4.354,4.59,13.027,14.415,20.601,17.221
								c7.574,2.805,19.771,4.542,33.491-0.805c13.722-5.348,44.187-19.199,50.736-61.184"/>
						</g>
						<polyline style="clip-path:url(#SVGID_00000050622310943482902390000014511987088639250360_);fill:none;" points="
							234.934,277.224 234.934,372.678 53.651,372.678 53.651,277.224 						"/>
					</g>
					<g>
						<path style="fill-rule:evenodd;clip-rule:evenodd;fill:#8BB939;" d="M118.026,276.355l-6.704-9.348
							c-0.554-0.772-1.459-0.772-2.013,0l-6.704,9.348c-0.554,0.772-0.101,1.403,1.007,1.403h2.955v12.714
							c0,0.349,0.351,0.631,0.782,0.631h5.933c0.433,0,0.783-0.282,0.783-0.631v-12.714h2.955
							C118.127,277.759,118.58,277.127,118.026,276.355z"/>
						<path style="fill-rule:evenodd;clip-rule:evenodd;fill:#CA2636;" d="M139.768,281.177l-6.704,9.348
							c-0.553,0.771-1.459,0.771-2.013,0l-6.704-9.348c-0.554-0.771-0.101-1.403,1.007-1.403h2.955V267.06
							c0-0.348,0.351-0.63,0.782-0.63h5.933c0.433,0,0.783,0.282,0.783,0.63v12.714h2.955
							C139.868,279.773,140.321,280.405,139.768,281.177z"/>
					</g>
					<g>
						<rect x="96.162" y="361.82" style="fill-rule:evenodd;clip-rule:evenodd;fill:#8BB939;" width="48.806" height="5.503"/>
						<rect x="96.162" y="374.239" style="fill-rule:evenodd;clip-rule:evenodd;fill:#CA2636;" width="48.806" height="5.503"/>
						<rect x="96.162" y="386.659" style="fill-rule:evenodd;clip-rule:evenodd;fill:#CA2636;" width="48.806" height="5.502"/>
						<rect x="96.162" y="399.078" style="fill-rule:evenodd;clip-rule:evenodd;fill:#8BB939;" width="48.806" height="5.503"/>
						<path style="fill-rule:evenodd;clip-rule:evenodd;fill:#8BB939;" d="M152.001,363.989l-1.618-2.256
							c-0.133-0.185-0.352-0.185-0.485,0l-1.618,2.256c-0.134,0.187-0.024,0.339,0.243,0.339h0.713v3.069
							c0,0.084,0.085,0.151,0.189,0.151h1.432c0.105,0,0.189-0.067,0.189-0.151v-3.069h0.714
							C152.025,364.328,152.135,364.176,152.001,363.989z"/>
						<path style="fill-rule:evenodd;clip-rule:evenodd;fill:#8BB939;" d="M152.001,401.248l-1.618-2.257
							c-0.133-0.186-0.352-0.186-0.485,0l-1.618,2.257c-0.134,0.186-0.024,0.338,0.243,0.338h0.713v3.068
							c0,0.085,0.085,0.152,0.189,0.152h1.432c0.105,0,0.189-0.067,0.189-0.152v-3.068h0.714
							C152.025,401.586,152.135,401.434,152.001,401.248z"/>
						<path style="fill-rule:evenodd;clip-rule:evenodd;fill:#CA2636;" d="M152.001,377.572l-1.618,2.257
							c-0.133,0.185-0.352,0.185-0.485,0l-1.618-2.257c-0.134-0.186-0.024-0.338,0.243-0.338h0.713v-3.069
							c0-0.084,0.085-0.151,0.189-0.151h1.432c0.105,0,0.189,0.067,0.189,0.151v3.069h0.714
							C152.025,377.234,152.135,377.387,152.001,377.572z"/>
						<path style="fill-rule:evenodd;clip-rule:evenodd;fill:#CA2636;" d="M152.001,389.992l-1.618,2.256
							c-0.133,0.187-0.352,0.187-0.485,0l-1.618-2.256c-0.134-0.186-0.024-0.339,0.243-0.339h0.713v-3.068
							c0-0.084,0.085-0.152,0.189-0.152h1.432c0.105,0,0.189,0.068,0.189,0.152v3.068h0.714
							C152.025,389.653,152.135,389.806,152.001,389.992z"/>
					</g>
					<text transform="matrix(1 0 0 1 99.9312 308.5962)"><tspan x="0" y="0" style="fill:#F5F5F5; font-family:'Poppins-Bold'; font-size:12px;">Stocks</tspan><tspan x="3.522" y="12" style="fill:#F5F5F5; font-family:'Poppins-Bold'; font-size:12px;">Index</tspan></text>
				</g>
			</g>
			<g>
				<path style="fill:#F5F5F5;" d="M638.903,184.332c0,2.591-2.101,4.691-4.691,4.691h-143.62c-2.591,0-4.691-2.1-4.691-4.691V94.54
					c0-2.591,2.101-4.691,4.691-4.691h143.62c2.591,0,4.691,2.1,4.691,4.691V184.332z"/>
				<g>
					<g>
						<rect x="507.603" y="103.174" style="fill:#8BB939;" width="12.807" height="72.523"/>
						<rect x="520.436" y="136.831" style="fill:#CA2636;" width="12.806" height="38.867"/>
					</g>
					<g>
						<rect x="604.394" y="103.174" style="fill:#CA2636;" width="12.807" height="72.523"/>
						<rect x="591.56" y="116.447" style="fill:#8BB939;" width="12.807" height="59.25"/>
					</g>
					<g>
						<rect x="551.508" y="110.285" style="fill:#8BB939;" width="12.806" height="65.413"/>
						<rect x="564.34" y="120.24" style="fill:#CA2636;" width="12.807" height="55.458"/>
					</g>
				</g>
			</g>
			<g>
				<path style="opacity:0.6;fill:#7FD3CC;" d="M353.231,444.425c0,4.96-4.02,8.982-8.98,8.982h-134.02
					c-4.96,0-8.981-4.022-8.981-8.982l0,0c0-4.96,4.021-8.979,8.981-8.979h134.02C349.212,435.445,353.231,439.465,353.231,444.425
					L353.231,444.425z"/>
				<g>
					<path style="opacity:0.5;fill:#D2E1F5;" d="M271.424,321.565c-19.585-16.045-48.571-13.164-64.615,6.421
						c-16.045,19.586-13.164,48.571,6.422,64.615c19.585,16.045,48.57,13.164,64.615-6.421
						C293.89,366.594,291.009,337.608,271.424,321.565z"/>
					<path style="fill:#2E333B;" d="M343.233,424.344l-49.198-40.303c-1.344-1.101-2.963-1.639-4.574-1.646
						c11.864-22.075,6.872-50.236-13.228-66.702c-22.822-18.696-56.601-15.339-75.297,7.483
						c-18.695,22.822-15.339,56.601,7.483,75.297c20.1,16.466,48.692,15.817,68.001-0.16c0.325,1.578,1.171,3.06,2.515,4.161
						l49.198,40.303c3.111,2.55,7.701,2.094,10.251-1.019l5.867-7.163C346.802,431.483,346.346,426.894,343.233,424.344z
						 M217.283,387.653c-16.857-13.809-19.337-38.758-5.527-55.614c13.809-16.857,38.758-19.337,55.614-5.527
						c16.857,13.81,19.337,38.758,5.527,55.614C259.088,398.983,234.14,401.463,217.283,387.653z"/>
					
						<rect x="283.036" y="396.514" transform="matrix(0.6337 -0.7736 0.7736 0.6337 -201.5402 374.7705)" style="fill:#EDB829;" width="23.828" height="7.356"/>
				</g>
			</g>
			<g>
				<g>
					<path style="fill-rule:evenodd;clip-rule:evenodd;fill:#EA972A;" d="M414.17,71.101c-3.677,6.679-12.074,9.113-18.752,5.436
						c-6.679-3.677-9.112-12.075-5.436-18.753c3.677-6.678,12.074-9.112,18.753-5.436C415.413,56.026,417.847,64.423,414.17,71.101z
						"/>
					<path style="fill-rule:evenodd;clip-rule:evenodd;fill:#D88521;" d="M411.58,54.449c3.514,4.236,4.296,10.344,1.481,15.457
						c-3.677,6.678-12.074,9.112-18.753,5.435c-1.095-0.602-2.063-1.342-2.92-2.17c1.086,1.331,2.432,2.486,4.029,3.366
						c6.678,3.677,15.075,1.243,18.752-5.436C417.262,65.486,416.021,58.666,411.58,54.449z"/>
					<path style="fill-rule:evenodd;clip-rule:evenodd;fill:#EDB829;" d="M394.378,78.426c7.721,4.251,17.431,1.437,21.682-6.285
						c4.251-7.722,1.436-17.431-6.284-21.682c-7.722-4.251-17.432-1.437-21.683,6.285C383.842,64.466,386.656,74.175,394.378,78.426
						L394.378,78.426z M413.588,70.78c-3.5,6.357-11.493,8.673-17.85,5.174c-6.356-3.5-8.673-11.493-5.173-17.849
						c3.499-6.356,11.492-8.673,17.849-5.173C414.771,56.431,417.087,64.424,413.588,70.78z"/>
					<g>
						<path style="fill:#FFCE55;" d="M406.162,69.504c-1.195,2.165-3.518,2.369-5.825,1.392l-1.411,2.555l-2.458-1.358l1.466-2.653
							c-1.289-1.052-2.349-2.402-2.94-3.791l2.689-1.87c0.624,1.64,2.115,3.441,3.287,4.088c0.716,0.396,1.307,0.404,1.595-0.117
							c0.953-1.725-5.607-3.926-3.387-7.947c0.972-1.758,2.844-2.338,5.023-1.707l1.421-2.573l2.458,1.358l-1.358,2.458
							c1.377,0.931,2.549,2.194,3.205,3.428l-2.691,1.912c-0.804-1.314-2.131-2.835-3.092-3.365
							c-0.569-0.315-1.052-0.326-1.286,0.097C401.932,63.087,408.439,65.385,406.162,69.504z"/>
					</g>
				</g>
				<g>
					<path style="fill-rule:evenodd;clip-rule:evenodd;fill:#EA972A;" d="M462.711,121.088c1.316,7.509-3.706,14.666-11.216,15.982
						c-7.509,1.316-14.666-3.706-15.981-11.216c-1.316-7.509,3.707-14.665,11.216-15.982
						C454.238,108.557,461.395,113.579,462.711,121.088z"/>
					<path style="fill-rule:evenodd;clip-rule:evenodd;fill:#D88521;" d="M450.263,109.728c5.393,1.103,9.827,5.374,10.835,11.123
						c1.316,7.509-3.706,14.666-11.216,15.981c-1.23,0.216-2.448,0.245-3.636,0.137c1.681,0.358,3.453,0.415,5.249,0.101
						c7.51-1.316,12.532-8.473,11.216-15.982C461.604,114.774,456.366,110.234,450.263,109.728z"/>
					<path style="fill-rule:evenodd;clip-rule:evenodd;fill:#EDB829;" d="M451.868,139.194c8.682-1.521,14.488-9.796,12.967-18.478
						c-1.522-8.682-9.796-14.489-18.478-12.968c-8.683,1.521-14.489,9.796-12.968,18.478
						C434.911,134.908,443.185,140.715,451.868,139.194L451.868,139.194z M462.056,121.203c1.253,7.147-3.528,13.959-10.675,15.212
						c-7.147,1.252-13.96-3.528-15.212-10.675c-1.253-7.148,3.528-13.959,10.675-15.212
						C453.991,109.275,460.803,114.056,462.056,121.203z"/>
					<g>
						<path style="fill:#FFCE55;" d="M455.468,124.858c0.424,2.436-1.26,4.05-3.67,4.733l0.5,2.876l-2.767,0.481l-0.519-2.986
							c-1.664-0.013-3.336-0.402-4.667-1.114l0.926-3.143c1.514,0.888,3.804,1.358,5.122,1.128c0.807-0.14,1.272-0.504,1.17-1.09
							c-0.338-1.942-6.83,0.451-7.616-4.075c-0.344-1.979,0.752-3.604,2.847-4.477l-0.504-2.895l2.767-0.481l0.48,2.767
							c1.657-0.137,3.361,0.114,4.647,0.665l-0.901,3.177c-1.45-0.522-3.436-0.875-4.518-0.688
							c-0.642,0.112-1.024,0.405-0.942,0.881C448.15,122.505,454.662,120.222,455.468,124.858z"/>
					</g>
				</g>
				<g>
					<path style="fill-rule:evenodd;clip-rule:evenodd;fill:#EA972A;" d="M412.002,172.557c-3.447,6.8-11.756,9.52-18.556,6.074
						c-6.801-3.446-9.521-11.756-6.074-18.556c3.446-6.8,11.756-9.52,18.556-6.074C412.727,157.447,415.447,165.756,412.002,172.557
						z"/>
					<path style="fill-rule:evenodd;clip-rule:evenodd;fill:#D88521;" d="M408.843,156.003c3.656,4.114,4.647,10.191,2.009,15.398
						c-3.445,6.8-11.755,9.52-18.555,6.074c-1.115-0.564-2.107-1.271-2.993-2.069c1.131,1.293,2.516,2.401,4.143,3.226
						c6.8,3.446,15.109,0.726,18.556-6.074C414.899,166.839,413.426,160.065,408.843,156.003z"/>
					<path style="fill-rule:evenodd;clip-rule:evenodd;fill:#EDB829;" d="M392.471,180.554c7.862,3.984,17.47,0.84,21.454-7.023
						c3.984-7.862,0.84-17.47-7.023-21.454c-7.862-3.985-17.47-0.84-21.454,7.022C381.464,166.962,384.608,176.57,392.471,180.554
						L392.471,180.554z M411.408,172.256c-3.28,6.473-11.189,9.061-17.662,5.781c-6.472-3.28-9.061-11.189-5.781-17.662
						c3.28-6.472,11.19-9.061,17.662-5.781C412.1,157.874,414.689,165.784,411.408,172.256z"/>
					<g>
						<path style="fill:#FFCE55;" d="M403.943,171.234c-1.12,2.204-3.435,2.488-5.775,1.59l-1.323,2.602l-2.503-1.273l1.374-2.702
							c-1.323-1.007-2.429-2.32-3.068-3.688l2.625-1.961c0.68,1.618,2.231,3.366,3.425,3.973c0.729,0.371,1.319,0.358,1.589-0.172
							c0.894-1.757-5.737-3.732-3.655-7.827c0.911-1.79,2.762-2.434,4.961-1.878l1.332-2.619l2.503,1.272l-1.272,2.503
							c1.408,0.883,2.622,2.105,3.32,3.316l-2.625,2.003c-0.848-1.286-2.227-2.76-3.205-3.257c-0.58-0.295-1.063-0.29-1.282,0.141
							C399.496,164.966,406.077,167.04,403.943,171.234z"/>
					</g>
				</g>
				<g>
					<path style="fill-rule:evenodd;clip-rule:evenodd;fill:#EA972A;" d="M527.8,189.889c1.456,7.484-3.433,14.732-10.916,16.188
						c-7.483,1.455-14.732-3.433-16.188-10.917s3.433-14.732,10.916-16.188C519.096,177.518,526.345,182.406,527.8,189.889z"/>
					<path style="fill-rule:evenodd;clip-rule:evenodd;fill:#D88521;" d="M515.143,178.763c5.412,1.002,9.926,5.19,11.04,10.919
						c1.456,7.484-3.433,14.732-10.916,16.188c-1.227,0.238-2.443,0.29-3.633,0.204c1.687,0.326,3.461,0.351,5.25,0.003
						c7.483-1.456,12.372-8.704,10.916-16.188C526.576,183.597,521.254,179.156,515.143,178.763z"/>
					<path style="fill-rule:evenodd;clip-rule:evenodd;fill:#EDB829;" d="M517.296,208.194c8.651-1.683,14.304-10.064,12.621-18.716
						c-1.683-8.652-10.063-14.305-18.716-12.622c-8.652,1.683-14.305,10.064-12.622,18.716
						C500.262,204.225,508.644,209.876,517.296,208.194L517.296,208.194z M527.147,190.016c1.385,7.123-3.268,14.023-10.391,15.408
						c-7.123,1.385-14.022-3.268-15.407-10.39c-1.386-7.123,3.268-14.023,10.39-15.408
						C518.862,178.241,525.762,182.894,527.147,190.016z"/>
					<g>
						<path style="fill:#FFCE55;" d="M520.628,193.793c0.469,2.428-1.184,4.073-3.581,4.801l0.554,2.866l-2.758,0.532l-0.574-2.976
							c-1.663,0.018-3.342-0.34-4.687-1.027l0.867-3.159c1.53,0.859,3.828,1.287,5.143,1.033c0.804-0.155,1.263-0.527,1.149-1.112
							c-0.374-1.935-6.82,0.578-7.691-3.933c-0.38-1.972,0.686-3.617,2.764-4.529l-0.558-2.885l2.758-0.532l0.531,2.757
							c1.654-0.168,3.363,0.051,4.657,0.578l-0.842,3.193c-1.459-0.495-3.452-0.812-4.529-0.604
							c-0.64,0.124-1.017,0.424-0.926,0.898C513.269,191.577,519.737,189.173,520.628,193.793z"/>
					</g>
				</g>
				<g>
					<path style="fill-rule:evenodd;clip-rule:evenodd;fill:#EA972A;" d="M451.834,244.794c-0.839,7.577-7.663,13.042-15.24,12.204
						c-7.577-0.839-13.043-7.664-12.204-15.241c0.839-7.577,7.663-13.042,15.24-12.204
						C447.208,230.392,452.672,237.217,451.834,244.794z"/>
					<path style="fill-rule:evenodd;clip-rule:evenodd;fill:#D88521;" d="M443.063,230.404c4.868,2.567,7.931,7.91,7.289,13.711
						c-0.839,7.578-7.663,13.042-15.24,12.204c-1.242-0.138-2.419-0.45-3.529-0.887c1.514,0.814,3.199,1.365,5.012,1.566
						c7.577,0.838,14.401-4.627,15.24-12.204C452.539,238.422,448.78,232.598,443.063,230.404z"/>
					<path style="fill-rule:evenodd;clip-rule:evenodd;fill:#EDB829;" d="M436.356,259.141c8.761,0.97,16.651-5.349,17.621-14.109
						c0.97-8.761-5.349-16.652-14.11-17.622c-8.761-0.969-16.651,5.349-17.621,14.11
						C421.276,250.281,427.596,258.172,436.356,259.141L436.356,259.141z M451.173,244.721c-0.798,7.213-7.294,12.414-14.506,11.616
						c-7.213-0.799-12.414-7.295-11.616-14.507c0.798-7.212,7.294-12.414,14.507-11.616
						C446.77,231.013,451.971,237.509,451.173,244.721z"/>
					<g>
						<path style="fill:#FFCE55;" d="M443.825,246.386c-0.275,2.457-2.343,3.536-4.849,3.517l-0.324,2.901l-2.791-0.313l0.338-3.011
							c-1.594-0.479-3.09-1.32-4.169-2.376l1.768-2.758c1.205,1.276,3.271,2.368,4.603,2.517c0.813,0.091,1.361-0.128,1.428-0.719
							c0.22-1.958-6.684-1.479-6.172-6.044c0.225-1.996,1.732-3.249,3.986-3.501l0.327-2.92l2.79,0.313l-0.313,2.791
							c1.629,0.333,3.194,1.05,4.273,1.939l-1.754,2.797c-1.246-0.907-3.055-1.802-4.145-1.924
							c-0.647-0.073-1.097,0.102-1.151,0.582C437.459,242.079,444.35,241.71,443.825,246.386z"/>
					</g>
				</g>
				<g>
					<path style="fill-rule:evenodd;clip-rule:evenodd;fill:#EA972A;" d="M417.211,318.794c1.384,7.497-3.574,14.698-11.07,16.082
						c-7.497,1.384-14.699-3.574-16.083-11.071c-1.384-7.496,3.574-14.698,11.071-16.082
						C408.626,306.339,415.827,311.297,417.211,318.794z"/>
					<path style="fill-rule:evenodd;clip-rule:evenodd;fill:#D88521;" d="M404.661,307.547c5.401,1.054,9.875,5.284,10.935,11.024
						c1.384,7.497-3.574,14.698-11.07,16.082c-1.229,0.227-2.446,0.268-3.635,0.17c1.684,0.342,3.457,0.384,5.25,0.053
						c7.496-1.384,12.454-8.585,11.07-16.082C416.048,312.49,410.769,307.998,404.661,307.547z"/>
					<path style="fill-rule:evenodd;clip-rule:evenodd;fill:#EDB829;" d="M406.531,336.997c8.668-1.6,14.4-9.927,12.801-18.595
						c-1.6-8.668-9.927-14.4-18.595-12.801c-8.668,1.6-14.4,9.927-12.8,18.595C389.537,332.864,397.863,338.597,406.531,336.997
						L406.531,336.997z M416.557,318.914c1.317,7.136-3.401,13.99-10.537,15.308c-7.136,1.317-13.991-3.401-15.308-10.537
						c-1.316-7.136,3.402-13.99,10.538-15.308C408.385,307.06,415.24,311.778,416.557,318.914z"/>
					<g>
						<path style="fill:#FFCE55;" d="M410.002,322.629c0.445,2.432-1.223,4.061-3.627,4.767l0.525,2.871l-2.762,0.506l-0.546-2.982
							c-1.663,0.002-3.339-0.372-4.677-1.072l0.898-3.151c1.521,0.874,3.816,1.324,5.133,1.083c0.805-0.147,1.267-0.516,1.159-1.101
							c-0.354-1.939-6.825,0.513-7.652-4.006c-0.361-1.976,0.72-3.61,2.806-4.503l-0.529-2.891l2.763-0.506l0.505,2.763
							c1.655-0.151,3.362,0.084,4.651,0.623l-0.872,3.185c-1.454-0.509-3.444-0.844-4.523-0.646
							c-0.641,0.117-1.021,0.414-0.934,0.89C402.664,320.342,409.155,318,410.002,322.629z"/>
					</g>
				</g>
				<g>
					<path style="fill-rule:evenodd;clip-rule:evenodd;fill:#EA972A;" d="M508.848,362.344c1.23,7.523-3.872,14.622-11.396,15.852
						c-7.524,1.23-14.624-3.873-15.853-11.395c-1.23-7.524,3.872-14.623,11.396-15.854
						C500.518,349.716,507.617,354.819,508.848,362.344z"/>
					<path style="fill-rule:evenodd;clip-rule:evenodd;fill:#D88521;" d="M496.529,350.843c5.38,1.163,9.766,5.484,10.708,11.245
						c1.231,7.523-3.873,14.622-11.396,15.853c-1.233,0.202-2.452,0.218-3.638,0.096c1.676,0.377,3.448,0.454,5.248,0.16
						c7.523-1.23,12.626-8.329,11.396-15.852C507.813,356.017,502.626,351.418,496.529,350.843z"/>
					<path style="fill-rule:evenodd;clip-rule:evenodd;fill:#EDB829;" d="M497.8,380.325c8.699-1.424,14.6-9.632,13.177-18.33
						c-1.423-8.698-9.632-14.6-18.329-13.177c-8.699,1.423-14.601,9.632-13.178,18.329
						C480.894,375.847,489.102,381.748,497.8,380.325L497.8,380.325z M508.191,362.45c1.171,7.161-3.685,13.919-10.847,15.09
						c-7.161,1.171-13.918-3.687-15.089-10.848c-1.173-7.161,3.685-13.918,10.846-15.09
						C500.264,350.432,507.02,355.289,508.191,362.45z"/>
					<g>
						<path style="fill:#FFCE55;" d="M501.563,366.03c0.397,2.44-1.305,4.036-3.724,4.691l0.467,2.882l-2.772,0.449l-0.485-2.992
							c-1.662-0.032-3.33-0.44-4.653-1.167l0.962-3.132c1.503,0.905,3.787,1.401,5.108,1.187c0.809-0.131,1.277-0.489,1.182-1.076
							c-0.314-1.946-6.834,0.372-7.568-4.162c-0.321-1.982,0.793-3.594,2.896-4.443l-0.47-2.902l2.771-0.448l0.45,2.773
							c1.658-0.118,3.359,0.151,4.638,0.718l-0.938,3.166c-1.442-0.539-3.425-0.914-4.509-0.739
							c-0.643,0.105-1.029,0.394-0.952,0.871C494.272,363.594,500.81,361.385,501.563,366.03z"/>
					</g>
				</g>
			</g>
		</g>
	</g>
</g>
</svg>
